<!--?xml version="1.0" encoding="utf-8"?-->
<!-- Generator: Adobe Illustrator 18.1.1, SVG Export Plug-In . SVG Version: 6.00 Build 0)  -->

<svg version="1.1" id="_x32_" xmlns="http://www.w3.org/2000/svg" xmlns:xlink="http://www.w3.org/1999/xlink" x="0px" y="0px" viewBox="0 0 512 512" style="width: 32px; height: 32px; opacity: 1;" xml:space="preserve">
<style type="text/css">
	.st0{fill:#4B4B4B;}
</style>
<g>
	<path class="st0" d="M459.746,0H34.69v464.562c0,16.961,9.056,32.632,23.752,41.098C65.763,509.88,73.955,512,82.126,512
		c8.206,0,16.426-2.134,23.774-6.388l128.961-74.696c6.538-3.788,13.825-5.674,21.139-5.674c7.314,0,14.6,1.886,21.138,5.674
		l128.96,74.696l0.014,0.007c7.334,4.24,15.547,6.381,23.76,6.381c8.164,0,16.364-2.113,23.698-6.346
		c14.683-8.46,23.74-24.13,23.74-41.091V0H459.746z M436.02,475.224c-1.908,1.098-4.014,1.64-6.148,1.647
		c-2.127,0-4.254-0.548-6.182-1.667l-1.091-0.624l-127.856-74.058c-11.98-6.943-25.372-10.415-38.744-10.415
		c-13.373,0-26.772,3.478-38.745,10.415L88.294,475.218c-1.907,1.105-4.02,1.654-6.168,1.654c-2.12,0-4.24-0.548-6.148-1.647
		c-3.815-2.196-6.16-6.257-6.16-10.662V35.129h372.364v429.434C442.182,468.968,439.835,473.029,436.02,475.224z" style="fill: rgb(75, 75, 75);"></path>
	<path class="st0" d="M349.255,201.104l-60.378-3.636c-2.318-0.144-4.35-1.619-5.2-3.78l-22.12-56.295
		c-0.892-2.278-3.101-3.788-5.557-3.788c-2.457,0-4.666,1.503-5.558,3.788l-22.12,56.295c-0.851,2.161-2.882,3.636-5.2,3.78
		l-60.378,3.636c-2.456,0.151-4.57,1.784-5.324,4.124c-0.755,2.333-0.014,4.892,1.887,6.456l46.703,38.443
		c1.798,1.475,2.567,3.863,1.99,6.113l-15.204,58.545c-0.611,2.381,0.288,4.892,2.278,6.333c1.99,1.447,4.652,1.523,6.724,0.206
		l50.991-32.542c1.955-1.248,4.467-1.248,6.422,0l50.984,32.542c2.072,1.318,4.741,1.242,6.731-0.206
		c1.983-1.441,2.882-3.952,2.264-6.333L304,256.24c-0.576-2.25,0.192-4.638,1.989-6.113l46.703-38.443
		c1.901-1.564,2.648-4.123,1.887-6.456C353.818,202.888,351.712,201.256,349.255,201.104z" style="fill: rgb(75, 75, 75);"></path>
</g>
</svg>
