<!--?xml version="1.0" encoding="utf-8"?-->
<!-- Generator: Adobe Illustrator 18.1.1, SVG Export Plug-In . SVG Version: 6.00 Build 0)  -->

<svg version="1.1" id="_x32_" xmlns="http://www.w3.org/2000/svg" xmlns:xlink="http://www.w3.org/1999/xlink" x="0px" y="0px" viewBox="0 0 512 512" style="width: 32px; height: 32px; opacity: 1;" xml:space="preserve">
<style type="text/css">
	.st0{fill:#4B4B4B;}
</style>
<g>
	<path class="st0" d="M352.305,172.102c5.164-1.113,8.86-5.682,8.86-10.969c0-5.272-3.703-9.856-8.866-10.962
		c-18.043-3.85-37.044-9.694-54.106-17.293c-17.061-7.584-32.166-16.976-42.532-27.38c-10.398-10.367-19.798-25.464-27.381-42.533
		c-7.599-17.061-13.444-36.047-17.293-54.097C209.873,3.703,205.303,0,200.024,0c-5.28,0-9.864,3.695-10.969,8.859
		c-3.858,18.066-9.702,37.052-17.293,54.113c-7.584,17.076-16.976,32.166-27.388,42.54c-10.359,10.405-25.457,19.79-42.525,27.381
		c-17.061,7.599-36.062,13.45-54.105,17.308c-5.164,1.106-8.867,5.682-8.859,10.962c0,5.28,3.695,9.856,8.867,10.961
		c18.058,3.85,37.044,9.695,54.105,17.301c17.068,7.575,32.158,16.976,42.532,27.373c10.405,10.367,19.798,25.464,27.381,42.532
		c7.606,17.061,13.451,36.054,17.3,54.097c1.106,5.172,5.69,8.867,10.97,8.867s9.856-3.702,10.962-8.867
		c3.85-18.05,9.694-37.044,17.3-54.112c7.568-17.069,16.968-32.166,27.365-42.533c10.367-10.397,25.464-19.797,42.533-27.373
		C315.261,181.812,334.255,175.959,352.305,172.102z M239.82,200.936c-13.173,13.204-23.632,30.489-32.012,49.266
		c-2.875,6.47-5.404,13.142-7.777,19.875c-2.381-6.725-4.908-13.405-7.784-19.859c-8.38-18.793-18.839-36.063-32.004-49.266
		c-13.211-13.18-30.488-23.632-49.266-32.019c-6.47-2.868-13.149-5.404-19.882-7.777c6.725-2.373,13.405-4.901,19.874-7.784
		c18.778-8.388,36.055-18.839,49.258-32.004c13.18-13.203,23.632-30.496,32.011-49.274c2.884-6.47,5.404-13.149,7.785-19.874
		c2.373,6.725,4.901,13.397,7.777,19.866c8.38,18.778,18.838,36.055,32.003,49.258c13.212,13.18,30.489,23.632,49.274,32.019
		c6.47,2.868,13.142,5.404,19.875,7.784c-6.733,2.373-13.405,4.902-19.875,7.777C270.301,177.312,253.024,187.764,239.82,200.936z" style="fill: rgb(75, 75, 75);"></path>
	<path class="st0" d="M464.249,319.753c-10.497-2.234-21.583-5.651-31.432-10.034c-9.848-4.368-18.429-9.772-24.057-15.43
		c-5.651-5.612-11.046-14.193-15.414-24.049c-4.391-9.841-7.808-20.926-10.05-31.425c-1.113-5.164-5.682-8.866-10.962-8.866
		c-5.28,0-9.856,3.695-10.969,8.859c-2.235,10.506-5.659,21.591-10.042,31.44c-4.36,9.856-9.763,18.437-15.422,24.056
		c-5.612,5.651-14.193,11.054-24.05,15.423c-9.848,4.39-20.934,7.799-31.432,10.049c-5.164,1.098-8.874,5.682-8.86,10.962
		c0,5.279,3.695,9.848,8.86,10.953c10.513,2.25,21.591,5.659,31.432,10.058c9.856,4.359,18.437,9.756,24.05,15.414
		c5.658,5.62,11.07,14.208,15.43,24.065c4.399,9.84,7.816,20.918,10.057,31.424c1.098,5.172,5.682,8.867,10.962,8.867
		c5.28,0,9.864-3.703,10.961-8.867c2.242-10.506,5.651-21.591,10.042-31.432c4.36-9.856,9.764-18.437,15.422-24.065
		c5.612-5.65,14.193-11.054,24.057-15.414c9.841-4.391,20.919-7.808,31.424-10.065c5.164-1.106,8.86-5.674,8.86-10.962
		C473.116,325.442,469.413,320.858,464.249,319.753z M423.703,331.248c-11.558,5.172-22.326,11.634-30.791,20.06
		c-8.418,8.465-14.873,19.226-20.045,30.79c-0.178,0.418-0.34,0.866-0.526,1.299c-0.185-0.433-0.348-0.881-0.534-1.299
		c-5.171-11.564-11.619-22.325-20.052-30.79c-8.458-8.418-19.218-14.881-30.79-20.044c-0.426-0.186-0.858-0.348-1.291-0.534
		c0.433-0.186,0.865-0.34,1.291-0.526c11.572-5.172,22.332-11.627,30.782-20.038c8.442-8.472,14.889-19.24,20.06-30.806
		c0.186-0.425,0.34-0.858,0.526-1.291c0.186,0.433,0.34,0.866,0.526,1.291c5.171,11.572,11.634,22.325,20.044,30.782
		c8.473,8.434,19.234,14.881,30.799,20.053c0.417,0.185,0.858,0.348,1.283,0.534C424.561,330.915,424.121,331.062,423.703,331.248z" style="fill: rgb(75, 75, 75);"></path>
	<path class="st0" d="M228.696,414.613c-8.712-1.864-17.896-4.693-26.028-8.31c-8.14-3.61-15.167-8.055-19.658-12.585
		c-4.522-4.476-8.975-11.511-12.57-19.643c-3.634-8.133-6.47-17.324-8.325-26.036c-1.098-5.164-5.682-8.858-10.962-8.858
		c-5.28-0.016-9.864,3.695-10.962,8.858c-1.862,8.712-4.7,17.904-8.317,26.044c-3.602,8.133-8.047,15.16-12.578,19.651
		c-4.476,4.514-11.51,8.975-19.65,12.577c-8.133,3.618-17.316,6.456-26.036,8.318c-5.156,1.106-8.859,5.682-8.859,10.962
		s3.702,9.856,8.859,10.961c8.72,1.864,17.911,4.693,26.044,8.318c8.132,3.603,15.159,8.048,19.643,12.578
		c4.53,4.492,8.983,11.526,12.585,19.658c3.626,8.125,6.462,17.316,8.326,26.036c1.105,5.164,5.682,8.859,10.962,8.859
		c5.28,0,9.864-3.703,10.969-8.867c1.856-8.712,4.685-17.911,8.31-26.036c3.594-8.14,8.047-15.167,12.57-19.658
		c4.492-4.522,11.51-8.975,19.658-12.57c8.125-3.633,17.324-6.47,26.028-8.341c5.172-1.098,8.859-5.682,8.859-10.962
		C237.563,420.287,233.86,415.71,228.696,414.613z M167.162,441.592c-6.672,6.702-11.797,15.012-16.002,23.917
		c-4.198-8.905-9.33-17.208-16.01-23.917c-6.71-6.679-15.02-11.797-23.91-16.002c8.89-4.206,17.2-9.338,23.91-16.002
		c6.68-6.71,11.804-15.028,16.002-23.918c4.213,8.89,9.338,17.208,16.01,23.902c6.702,6.679,15.02,11.82,23.925,16.01
		C182.182,429.787,173.872,434.912,167.162,441.592z" style="fill: rgb(75, 75, 75);"></path>
</g>
</svg>
