<!--?xml version="1.0" encoding="utf-8"?-->
<!-- Generator: Adobe Illustrator 18.1.1, SVG Export Plug-In . SVG Version: 6.00 Build 0)  -->

<svg version="1.1" id="_x32_" xmlns="http://www.w3.org/2000/svg" xmlns:xlink="http://www.w3.org/1999/xlink" x="0px" y="0px" viewBox="0 0 512 512" style="width: 32px; height: 32px; opacity: 1;" xml:space="preserve">
<style type="text/css">
	.st0{fill:#4B4B4B;}
</style>
<g>
	<path class="st0" d="M85.914,258.29c37.344,0,67.72-30.383,67.72-67.727c0-37.344-30.376-67.719-67.72-67.719
		c-37.344,0-67.719,30.376-67.719,67.719C18.195,227.907,48.57,258.29,85.914,258.29z M85.914,144.268
		c25.528,0,46.295,20.768,46.295,46.295s-20.768,46.295-46.295,46.295c-25.527,0-46.295-20.768-46.295-46.295
		S60.387,144.268,85.914,144.268z" style="fill: rgb(75, 75, 75);"></path>
	<path class="st0" d="M426.086,258.29c37.344,0,67.72-30.383,67.72-67.727c0-37.344-30.376-67.719-67.72-67.719
		c-37.343,0-67.72,30.376-67.72,67.719C358.366,227.907,388.743,258.29,426.086,258.29z M426.086,144.268
		c25.527,0,46.296,20.768,46.296,46.295s-20.768,46.295-46.296,46.295c-25.527,0-46.295-20.768-46.295-46.295
		S400.559,144.268,426.086,144.268z" style="fill: rgb(75, 75, 75);"></path>
	<path class="st0" d="M511.963,330.098l-0.202-0.963c-1.357-6.244-4.103-12.674-8.16-19.111
		c-4.834-7.624-13.704-18.508-28.541-27.057c-14.271-8.25-30.734-12.436-48.974-12.436c-12.562,0.015-25.758,2.618-38.171,7.527
		c-7.751,3.08-14.92,7.064-21.335,11.86c-15.74-29.279-52.718-59.938-110.576-59.938s-94.843,30.659-110.584,59.938
		c-6.393-4.781-13.569-8.764-21.342-11.86c-12.406-4.909-25.602-7.512-38.299-7.527c-29.57,0-49.286,11.204-60.625,20.596
		C18.5,296.641,12.861,302.996,8.4,310.031c-4.058,6.43-6.803,12.861-8.16,19.112L0,330.411v121.184h138.14v28.392H373.86v-28.392
		H512L511.963,330.098z M138.14,430.17H21.425l-0.044-97.246c0.507-2.066,1.849-6.288,5.125-11.443
		c3.535-5.588,10.078-13.592,21.133-19.955c11.011-6.341,23.894-9.556,38.276-9.564l0.105-1.522v1.522
		c9.713,0,20.425,2.134,30.175,6.012c8.571,3.38,16.336,8.273,21.946,13.808V430.17z M352.436,458.562H159.564l-0.052-146.95
		c6.199-23.282,37.88-60.208,96.492-60.208c58.604,0,90.285,36.926,96.432,59.812V458.562z M490.576,430.17H373.86V311.784
		c5.61-5.535,13.376-10.428,21.954-13.816c9.743-3.871,20.455-6.005,30.168-6.005v-1.522l0.104,1.522
		c18.627,0.022,34.479,5.304,47.108,15.68c4.857,4.014,9.108,8.803,12.302,13.845c3.274,5.148,4.618,9.37,5.08,11.071V430.17z" style="fill: rgb(75, 75, 75);"></path>
	<path class="st0" d="M256.004,212.629c49.794,0,90.3-40.514,90.3-90.308c0-49.794-40.506-90.308-90.3-90.308
		c-49.794,0-90.308,40.514-90.308,90.308C165.696,172.115,206.21,212.629,256.004,212.629z M256.004,53.438
		c37.978,0,68.876,30.898,68.876,68.884c0,37.978-30.898,68.876-68.876,68.876c-37.986,0-68.884-30.898-68.884-68.876
		C187.12,84.336,218.018,53.438,256.004,53.438z" style="fill: rgb(75, 75, 75);"></path>
</g>
</svg>
