<?xml version="1.0" encoding="UTF-8"?><svg id="b" xmlns="http://www.w3.org/2000/svg" width="216.793" height="259.436" viewBox="0 0 216.793 259.436"><defs><style>.d{fill:none;}.d,.e,.f,.g,.h,.i{stroke-width:0px;}.e{fill:#fff;}.f{fill:#3d8dcc;}.g{fill:#febe69;}.h{fill:#211715;}.i{fill:#645d5c;}</style></defs><g id="c"><path class="f" d="M214.382,257.036c-1.63-14.36-3.37-28.66-5.39-43.01-2.82-20.06-4.03-43.23-18.1-59.2-12.355-14.006-32.795-19-49.474-25.326.35.975.487,2.051.237,2.969-4.065,17.39-9.162,35.661-14.612,52.398-4.398,13.507-5.846,18.091-11.473,31.976h-1.815c-5.627-13.885-7.075-18.469-11.473-31.976-5.45-16.738-10.547-35.008-14.612-52.398-.201-.742-.151-1.586.06-2.397-.983.071-1.669.12-1.669.12l-8.57.622c-.63.047-1.25.097-1.87.142l-.658.051c.487,2.931-.817,4.453-3.068,5.913-3.08,1.997-5.425,3.138-8.666,4.663.106,1.978.726,3.875,1.174,5.8.418,1.793.685,3.677.247,5.466-.525,2.141-2.252,4.126-4.612,4.046.36,1.913.77,3.863.606,5.811-.152,1.798-.857,3.625-2.269,4.748-.55.437-1.187.754-1.844,1.002-2.167.818-4.631.894-6.801.083-.854-.319-1.653-.768-2.434-1.238-3.8-2.285-7.268-5.121-10.263-8.391-.714-.779-1.439-1.677-1.46-2.733-.006-.277.049-.544.126-.807-6.368-.264-9.611,5.18-9.611,5.18-9.485,15.296-16.722,31.984-21.405,49.363-2.456,9.113-4.058,19.424.806,27.512,4.874,8.104,15.462,11.635,24.752,9.87,7.71-1.464,14.501-6.018,19.861-11.826-.002,7.383-.002,14.756-.002,21.566h164.28Z"/><path class="e" d="M155.808,67.621c1.321-1.27,3.101-1.746,4.624-1.693,3.315.117,4.725,1.91,5.332,2.962,1.812,3.142,1.735,8.932.519,12.514-.861,2.537-2.272,6.418-5.673,9.201-1.401,1.147-3.464,1.902-5.436,1.569l-.522-.088c-.626,2.068-1.398,4.093-1.87,5.077-1.372,3.723-8.907,16.712-18.472,21.916v1.196c-.795.643-16.991,13.414-18.219,14.284h-2.853c-1.228-.87-17.425-13.641-18.219-14.284v-1.52c-3.851-2.122-7.366-5.236-10.731-9.264-4.899-5.864-7.689-12.18-9.23-17.414-2.102.542-4.374-.239-5.882-1.473-3.401-2.783-4.812-6.664-5.673-9.201-1.216-3.582-1.293-9.372.519-12.514.607-1.053,2.017-2.845,5.332-2.962,1.523-.054,3.303.423,4.624,1.693,0,0-11.084-45.262,40.916-45.262s40.916,45.262,40.916,45.262Z"/><path class="h" d="M148.234,134.52c8.868,3.112,17.848,6.106,26.132,10.609,8.15,4.431,15.114,10.36,19.878,18.397,4.7,7.929,7.163,16.925,8.839,25.924,1.734,9.315,2.707,18.766,4.004,28.147,1.814,13.122,3.4,26.275,4.895,39.437.146,1.288.998,2.4,2.4,2.4,1.184,0,2.547-1.104,2.4-2.4-1.377-12.118-2.838-24.227-4.466-36.314-1.34-9.946-2.449-19.955-4.125-29.851-1.602-9.459-3.984-18.906-8.495-27.435-4.597-8.692-11.472-15.615-19.851-20.699-9.42-5.715-19.993-9.217-30.335-12.846-1.223-.429-2.626.488-2.952,1.676-.364,1.324.449,2.522,1.676,2.952h0Z"/><path class="h" d="M52.502,257.036c0-5.63,0-11.26,0-16.89,0-1.297-1.103-2.4-2.4-2.4s-2.4,1.098-2.4,2.4c0,5.63,0,11.26,0,16.89,0,1.297,1.103,2.4,2.4,2.4s2.4-1.098,2.4-2.4h0Z"/><path class="h" d="M171.172,194.956c0,15.273.053,30.547.099,45.82.016,5.42.034,10.84.051,16.26.01,3.088,4.81,3.094,4.8,0-.056-17.289-.113-34.578-.14-51.867-.005-3.404-.01-6.809-.01-10.213,0-3.089-4.8-3.094-4.8,0h0Z"/><path class="i" d="M89.445,53.232c-3.373,3.029-6.581,6.282-8.93,8.898l-6.54,5.491c-1.321-1.27-3.101-1.746-4.624-1.693-.761.027-1.422.142-1.995.316-1.552-5.676-2.21-11.297-2.004-16.174.825-19.522,11.136-31.584,20.241-38.355,7.842-5.832,17.64-9.311,29.18-9.311,12.056,0,21.415,3.713,29.429,9.487,9.424,6.803,19.179,18.825,19.996,38.18.234,5.549-.418,10.073-1.95,16.122-.531-.145-1.134-.241-1.817-.265-1.523-.054-3.303.423-4.624,1.693l-6.49-5.142c-2.096-5.273-6.827-11.098-11.762-15.344-2.88-2.478-4.871-3.572-7.488-4.709l-8.13-.999c-5.483,2.31-13.215,7.162-17.554,9.573-1.035.575-2.254-.338-2.116-1.594.091-.827.092-1.701-.187-2.852-.289-1.191-1.204-1.697-1.917-1.323-3.17,1.663-7.042,4.7-10.719,8.001Z"/><path class="h" d="M143.279,8.352c-14.689-9.534-33.848-10.982-49.882-3.949-13.005,5.704-23.372,17.333-27.816,30.775-3.319,10.041-3.343,20.771-.735,30.969.765,2.991,5.395,1.723,4.629-1.276-3.833-14.99-1.064-31.314,9.067-43.275,4.114-4.857,8.768-8.704,14.339-11.634,7.139-3.755,15.208-5.329,23.238-5.142,8.884.207,17.292,2.844,24.737,7.676,2.599,1.687,5.007-2.467,2.423-4.145h0Z"/><path class="h" d="M164.733,66.147c2.061-8.424,2.462-16.835.755-25.368-1.389-6.945-4.23-13.658-8.407-19.389-2.056-2.821-4.368-5.429-6.952-7.777-2.282-2.074-5.686,1.311-3.394,3.394,9.806,8.912,14.939,21.4,15.106,34.596.057,4.517-.667,8.892-1.737,13.268-.734,3,3.894,4.28,4.629,1.276h0Z"/><path class="h" d="M128.857,44.498c4.093,1.792,7.419,4.446,10.506,7.655,3.047,3.169,6.007,6.934,7.641,10.964.487,1.2,1.598,2.048,2.952,1.676,1.138-.313,2.166-1.744,1.676-2.952-1.954-4.821-5.068-9.068-8.633-12.829-3.389-3.575-7.188-6.675-11.72-8.659-1.186-.52-2.576-.348-3.284.861-.595,1.018-.333,2.761.861,3.284h0Z"/><path class="h" d="M82.213,63.827c4.882-5.421,10.281-10.755,16.358-14.831.621-.417,1.253-.818,1.9-1.193.161-.093.391-.165.521-.294.371-.369.007.056.029-.05l-1.231-.296-.023-.029c-.048.175.08.365.106.543.13.903-.109,1.802.076,2.699.216,1.049.809,2.002,1.73,2.579,1.887,1.183,3.604.307,5.316-.676,1.586-.91,3.16-1.841,4.742-2.76,3.714-2.157,7.457-4.333,11.414-6.021,1.192-.509,1.457-2.265.861-3.284-.722-1.234-2.086-1.372-3.284-.861-3.54,1.51-6.904,3.42-10.234,5.338-1.652.952-3.293,1.92-4.942,2.877-.629.365-1.258.728-1.891,1.085-.035.02-.445.202-.487.272l1.042-.031.418.515c.124-.06.091-.798.09-.968-.013-2.102-.599-4.564-2.734-5.445-1.899-.783-3.596.404-5.149,1.399-3.18,2.037-6.12,4.479-8.93,6.993-3.185,2.849-6.23,5.866-9.09,9.042-2.062,2.29,1.322,5.695,3.394,3.394h0Z"/><path class="h" d="M107.137,102.451c2.553,1.348,5.301,1.92,8.188,1.902,2.981-.019,5.944-.626,8.325-2.482.995-.775.875-2.591,0-3.394-1.055-.969-2.332-.827-3.394,0,.744-.58.234-.183.042-.061-.161.103-.327.199-.497.288-.224.117-.779.249-.107.074-.231.06-.457.176-.685.249-.626.201-1.268.334-1.917.437.358-.057.127-.018-.099.005-.188.019-.376.034-.565.046-.454.029-.908.041-1.362.038-.407-.002-.814-.016-1.22-.044-.186-.013-.373-.028-.559-.046-.084-.008-.766-.128-.186-.018-.604-.114-1.201-.221-1.79-.397-.251-.075-.495-.165-.743-.25-.585-.2.429.213-.1-.037-.307-.145-.61-.296-.91-.454-1.11-.586-2.66-.318-3.284.861-.586,1.109-.324,2.658.861,3.284h0Z"/><path class="h" d="M113.962,83.347c.35,1.335.686,2.691.887,4.057l-.086-.638c.024.187.034.372.015.56l.086-.638c-.013.087-.032.169-.062.252l.242-.573c-.026.059-.053.109-.089.162l.375-.486c-.042.051-.081.09-.133.131l.486-.375c-.103.066-.211.119-.321.17l.573-.242c-.177.074-.352.128-.542.158l.638-.086c-.171.02-.338.019-.508,0l.638.086c-.192-.027-.38-.073-.572-.099-.319-.1-.638-.114-.957-.043-.319.014-.617.109-.892.285-.498.291-.973.862-1.103,1.434-.14.614-.11,1.304.242,1.849.312.484.835,1.022,1.434,1.103.465.063.916.18,1.389.201.74.032,1.423-.197,2.082-.501.822-.378,1.466-1.135,1.684-2.019.186-.751.108-1.386-.019-2.139-.221-1.307-.523-2.602-.859-3.885-.152-.579-.588-1.133-1.103-1.434s-1.273-.429-1.849-.242c-1.25.404-2.018,1.651-1.676,2.952h0Z"/><path class="h" d="M92.732,71.772c-.678,2.202-.236,7.267,3.935,7.698,5.513-.033,5.807-6.157,3.951-9.036-1.519-2.357-5.988-3.338-7.886,1.338Z"/><path class="h" d="M137.052,71.772c.678,2.202.236,7.267-3.935,7.698-5.513-.033-5.807-6.157-3.951-9.036,1.519-2.357,5.987-3.338,7.886,1.338Z"/><path class="h" d="M75.673,65.924c-2.79-2.503-6.794-3.089-10.204-1.502-2.464,1.148-3.949,3.466-4.638,6.028-1.614,6.004-.082,12.974,3.337,18.098,2.316,3.471,5.983,6.616,10.442,6.026,1.285-.17,2.4-.981,2.4-2.4,0-1.165-1.106-2.571-2.4-2.4-3.33.441-5.589-2.25-7.066-4.915-1.287-2.321-2.244-5.001-2.456-7.655-.197-2.471-.188-5.532,1.342-7.627.095-.132.076-.106-.055.078.1-.115.204-.227.313-.333.047-.042.531-.427.305-.268.496-.349,1.019-.538,1.614-.648,1.302-.241,2.671.015,3.671.912,2.294,2.057,5.699-1.326,3.394-3.394h0Z"/><path class="h" d="M157.505,69.319c.953-.855,2.239-1.128,3.491-.95.65.093,1.257.308,1.794.686-.146-.102.829.86.506.444,1.605,2.064,1.597,5.236,1.399,7.707-.207,2.598-1.132,5.212-2.37,7.496-1.472,2.717-3.759,5.522-7.152,5.073-1.287-.17-2.4,1.225-2.4,2.4,0,1.438,1.109,2.229,2.4,2.4,7.305.967,11.8-7.073,13.565-12.979,1.564-5.23,1.546-13.307-3.526-16.686-3.407-2.27-8.14-1.642-11.102,1.015-2.304,2.067,1.099,5.452,3.394,3.394h0Z"/><path class="h" d="M153.11,88.445c-.613,2.97-1.768,5.888-2.773,8.416-.135.34.234-.486-.007.008-.082.169-.156.342-.237.511-.201.423-.413.841-.632,1.255-.503.956-1.042,1.893-1.603,2.815-2.94,4.828-6.523,9.387-10.911,12.981-2.39,1.957-5.08,3.496-8.055,4.187-3.008.698-1.735,5.328,1.276,4.629,6.26-1.454,11.478-6.003,15.569-10.758,3.392-3.942,6.55-8.372,8.707-13.127.156-.343.302-.692.446-1.04.042-.101.249-.6.109-.273-.145.341.012-.015.037-.07.138-.305.265-.617.393-.926.175-.422.344-.847.504-1.275.739-1.971,1.379-3.992,1.805-6.056.622-3.015-4.003-4.304-4.629-1.276h0Z"/><path class="h" d="M71.929,89.575c1.865,8.215,5.721,15.891,11.219,22.273,5.319,6.173,12.173,11.078,20.379,12.299,1.28.19,2.58-.32,2.952-1.676.311-1.132-.386-2.76-1.676-2.952-7.492-1.114-13.404-5.427-18.261-11.064-4.962-5.759-8.307-12.761-9.985-20.155-.684-3.011-5.312-1.737-4.629,1.276h0Z"/><path class="e" d="M113.756,216.843c-5.627-13.885-7.075-18.469-11.473-31.976-5.45-16.738-10.547-35.008-14.612-52.398-.441-1.623.324-3.738,1.343-4.918,1.829-2.119,4.134-5.183,6.004-7.275.795.643,16.991,13.414,18.219,14.284h2.853c1.228-.87,17.425-13.641,18.219-14.284,1.87,2.092,4.175,5.156,6.004,7.275,1.019,1.18,1.783,3.295,1.343,4.918-4.065,17.39-9.162,35.661-14.612,52.398-4.398,13.507-5.846,18.091-11.473,31.976h-1.815Z"/><path class="g" d="M108.865,204.327c1.299,3.514,2.809,7.378,4.891,12.516h1.815c5.18-12.782,6.818-17.682,10.478-28.918-1.774-15.214-4.121-33.306-4.121-33.839,0-.958.218-1.906.436-2.842.109-.425.207-.849.294-1.274.468-2.113.554-3.194,1.099-5.433l.034-.109c-2.613-3.523-5.773-7.701-7.699-9.867h-2.853c-1.909,2.148-5.032,6.273-7.633,9.777.148.414.243.684.243.684.726,1.513.925,3.016,1.336,4.344.513,1.637,1.026,3.32,1.055,5.033.015.895-2.455,18.05-4.744,34.189,2.071,6.354,3.503,10.685,5.371,15.74Z"/><path class="h" d="M101.932,216.23c-10.14-17.577-20.164-35.235-29.509-53.251-.314-.605-.627-1.211-.939-1.817-.262-.508-.834-1.248-.928-1.809-.022-.13-.411.469.241-.255.425-.471.87-.926,1.31-1.382,2.099-2.172,4.29-4.253,6.493-6.319,1.124-1.055.825-3.021-.486-3.769-1.29-.737-2.581-1.473-3.871-2.21-.573-.327-1.147-.655-1.72-.982-.358-.205-.717-.409-1.075-.614-.143-.082-.287-.164-.43-.246-.291-.189-.29-.16.003.088l.328,1.211c-.012.281-.031.095.094-.063.139-.177.232-.412.349-.605.204-.337.423-.664.649-.987.474-.675,1.007-1.304,1.556-1.92,1.413-1.586,2.962-3.05,4.561-4.446,2.91-2.539,6.016-4.855,9.262-6.944l-3.526-1.434c5.502,24.387,12.42,48.516,20.683,72.113,1.993,5.692,4.202,11.302,6.465,16.891.486,1.201,1.599,2.048,2.952,1.676,1.139-.313,2.166-1.744,1.676-2.952-8.865-21.895-15.861-44.579-21.868-67.413-1.885-7.166-3.649-14.363-5.28-21.591-.333-1.474-2.261-2.248-3.526-1.434-4.997,3.216-9.867,6.928-13.968,11.243-1.793,1.886-4.34,4.476-4.821,7.14-.437,2.425,1.741,3.431,3.491,4.43,1.864,1.064,3.728,2.128,5.592,3.192l-.486-3.769c-2.029,1.903-4.047,3.818-5.993,5.806-1.762,1.8-4.087,3.771-3.355,6.585.309,1.188,1.026,2.307,1.585,3.393.627,1.217,1.258,2.431,1.892,3.645,1.215,2.326,2.443,4.646,3.68,6.96,5.127,9.594,10.418,19.1,15.784,28.562,2.975,5.245,5.975,10.476,8.989,15.699,1.543,2.675,5.693.261,4.145-2.423h0Z"/><path class="h" d="M131.539,218.652c10.738-18.614,21.477-37.29,31.172-56.475.662-1.309,1.142-2.589.73-4.063-.393-1.407-1.519-2.428-2.496-3.449-2.2-2.296-4.505-4.488-6.824-6.663l-.486,3.769c1.864-1.064,3.728-2.128,5.592-3.192,1.685-.962,3.674-1.833,3.534-4.111-.088-1.439-1.165-2.912-1.999-4.045-.882-1.198-1.839-2.336-2.864-3.414-4.101-4.315-8.97-8.027-13.968-11.243-1.265-.814-3.193-.039-3.526,1.434-5.502,24.387-12.42,48.516-20.683,72.113-1.993,5.692-4.202,11.302-6.465,16.891-.487,1.202.53,2.637,1.676,2.952,1.372.377,2.464-.47,2.952-1.676,8.865-21.895,15.861-44.579,21.868-67.413,1.885-7.166,3.649-14.363,5.28-21.591l-3.526,1.434c3.247,2.09,6.353,4.406,9.262,6.944,1.557,1.358,3.063,2.782,4.446,4.318.556.617,1.1,1.248,1.583,1.924.231.323.453.652.662.989.122.197.227.415.357.607.093.137.177.562.161.183l.328-1.211c.192-.37.169-.161-.212.035-.365.188-.718.41-1.075.614-.645.368-1.29.737-1.936,1.105-1.29.737-2.581,1.473-3.871,2.21-1.311.748-1.61,2.715-.486,3.769,1.912,1.794,3.816,3.599,5.658,5.465.391.397.78.795,1.166,1.198.324.338,1.169.952,1.302,1.387.036.12.008-.361-.081-.093-.207.62-.629,1.227-.928,1.809-2.292,4.449-4.631,8.874-7.003,13.281-4.861,9.031-9.858,17.989-14.922,26.907-2.823,4.971-5.667,9.929-8.524,14.88-1.546,2.681,2.6,5.101,4.145,2.423h0Z"/><path class="h" d="M121.305,150.041c-4.221-.002-8.442-.088-12.664-.09-1.255,0-2.458,1.104-2.4,2.4s1.055,2.399,2.4,2.4c4.221.002,8.442.088,12.664.09,1.255,0,2.458-1.104,2.4-2.4s-1.055-2.4-2.4-2.4h0Z"/><path class="h" d="M121.441,143.899c-.393,1.654-.655,3.332-1.004,4.995-.357,1.703-.974,3.48-.908,5.239.043,1.146.266,2.308.407,3.444.737,5.974,1.491,11.945,2.222,17.92.509,4.159,1.01,8.319,1.496,12.48.15,1.287.995,2.4,2.4,2.4,1.181,0,2.551-1.104,2.4-2.4-.825-7.067-1.694-14.13-2.572-21.191-.51-4.103-1.199-8.227-1.523-12.35-.092-1.164.267-2.276.521-3.403.439-1.945.728-3.918,1.189-5.858.714-3.003-3.914-4.285-4.629-1.276h0Z"/><path class="h" d="M105.921,188.433c1.258-8.865,2.537-17.727,3.762-26.597.318-2.305.719-4.62.914-6.94.123-1.46-.19-2.96-.564-4.365-.6-2.254-1.155-4.59-2.114-6.721-.532-1.182-2.25-1.466-3.284-.861-1.216.711-1.395,2.097-.861,3.284.432.96.618,2.018.886,3.03.267,1.006.615,1.988.861,3,.233.958.359,1.872.252,2.844-.265,2.394-.506,3.913-.851,6.404-1.187,8.552-2.417,17.098-3.631,25.646-.182,1.282.314,2.578,1.676,2.952,1.125.309,2.769-.385,2.952-1.676h0Z"/><path class="h" d="M93.32,118.579c-1.135,1.281-2.205,2.617-3.277,3.95-1.118,1.391-2.379,2.724-3.396,4.19-1.593,2.295-2.042,5.41-.609,7.864,2.372,4.062,5.153,7.955,8.135,11.587,1.781,2.17,3.713,4.303,6.076,5.855,1.172.769,2.54.132,3.284-.861,3.742-4.997,7.263-10.22,11.401-14.906,1.093-1.237.818-2.835-.486-3.769-.141-.101-.278-.206-.416-.311-.167-.126-.982-.756-.369-.281-.718-.555-1.433-1.113-2.149-1.671-1.989-1.553-3.973-3.111-5.957-4.671-2.951-2.32-5.921-4.619-8.843-6.975-1.008-.813-2.409-.985-3.394,0-.841.841-1.014,2.576,0,3.394,2.991,2.412,6.031,4.764,9.051,7.139,3.199,2.515,6.345,5.15,9.654,7.521l-.486-3.769c-4.407,4.991-8.165,10.554-12.151,15.877l3.284-.861c-.893-.586-1.753-1.392-2.723-2.402-1.049-1.092-2.028-2.25-2.972-3.433-1.775-2.226-3.405-4.576-4.962-6.959-.553-.847-1.098-1.701-1.619-2.569-.157-.262-.351-.529-.471-.81-.111-.258.037-.013.048.078-.034-.264-.034-.532.007-.801.255-1.637,1.692-2.869,2.684-4.099,1.333-1.651,2.642-3.323,4.05-4.912,2.042-2.305-1.341-5.712-3.394-3.394Z"/><path class="h" d="M132.612,121.973c1.407,1.589,2.717,3.261,4.05,4.912.99,1.226,2.429,2.464,2.684,4.099.041.261.046.525.017.785.001-.013.159-.343.039-.062s-.314.548-.471.81c-.521.868-1.066,1.721-1.619,2.569-1.557,2.383-3.186,4.733-4.962,6.959-.944,1.183-1.923,2.341-2.972,3.433-.97,1.01-1.83,1.815-2.723,2.402l3.284.861c-3.986-5.324-7.744-10.886-12.151-15.877l-.486,3.769c3.309-2.371,6.455-5.006,9.654-7.521,3.02-2.374,6.06-4.727,9.051-7.139,1.01-.814.848-2.546,0-3.394-.998-.998-2.382-.816-3.394,0-2.922,2.356-5.892,4.655-8.843,6.975-1.984,1.559-3.968,3.118-5.957,4.671-.715.558-1.431,1.116-2.149,1.671.613-.474-.202.155-.369.281-.138.104-.276.21-.416.311-1.304.934-1.578,2.532-.486,3.769,4.137,4.686,7.659,9.908,11.401,14.906.745.995,2.1,1.638,3.284.861,4.372-2.87,7.608-7.574,10.547-11.8,1.186-1.705,2.339-3.439,3.411-5.219,1.395-2.316,1.399-4.775.242-7.243-.777-1.657-2.21-3.016-3.349-4.431-1.289-1.599-2.559-3.215-3.922-4.753-2.052-2.317-5.437,1.088-3.394,3.394Z"/><path class="d" d="M35.063,159.162c8.45-12.84,24.51-18.63,43.04-25.82"/><path class="h" d="M74.782,133.426c2.68-.192,5.36-.404,8.04-.6.643-.047,1.23-.236,1.697-.703.416-.416.73-1.099.703-1.697-.055-1.222-1.059-2.498-2.4-2.4-2.68.196-5.36.408-8.04.6-.642.046-1.231.237-1.697.703-.416.416-.73,1.099-.703,1.697.055,1.223,1.059,2.496,2.4,2.4h0Z"/><path class="h" d="M24.018,159.339c-5.523,8.931-10.266,18.31-14.243,28.028-1.976,4.829-3.748,9.742-5.31,14.721-1.492,4.756-2.899,9.583-3.743,14.503-1.57,9.156-1.002,19.269,5.952,26.198,6.041,6.02,15.059,8.241,23.343,6.968,10.387-1.596,19.051-8.679,25.271-16.792.789-1.029.159-2.687-.861-3.284-1.237-.723-2.492-.171-3.284.861-4.93,6.43-11.673,11.935-19.623,14.007-6.89,1.795-14.964.544-20.445-4.217-6.428-5.585-7.087-14.344-5.76-22.259,1.552-9.258,4.729-18.402,8.158-27.114,3.995-10.152,8.951-19.92,14.688-29.197,1.629-2.635-2.521-5.048-4.145-2.423h0Z"/><path class="e" d="M78.51,122.241c-2.659-10.736-15.655-45.591-18.494-52.563-.801-1.966-3.209-2.72-5.006-1.589-5.819,3.66-11.587,7.399-17.302,11.217-1.723,1.151-6.285,3.82-6.816,5.581-.528,1.75.295,4.458,1.113,6.47,1.374,3.384,3.864,9.368,6.702,16.167,1.972-3.566,3.956-7.125,5.966-10.669,1.316-2.322,3.106-4.933,5.775-4.996,2.647-.062,4.194,2.375,4.365,5.018.171,2.642-.997,5.166-2.137,7.556-1.72,3.605-3.44,7.209-5.16,10.814,4.091-3.037,9.854-5.496,15.152-7.154,1.061-.332,2.793-.703,3.862-.397,1.769.507,3.084,1.518,3.628,3.197.544,1.678.349,3.518-.15,5.21,0,0-.273.874-.591,1.895.212.01.41.041.589.093,1.717.492,2.993,1.474,3.521,3.102s.339,3.414-.145,5.057c0,0-.298.796-.643,1.717l3.95-1.811c1.453-.714,2.212-2.344,1.823-3.915Z"/><path class="h" d="M53.048,135.708c-5.339-12.879-10.759-25.725-16.1-38.604-.931-2.245-1.893-4.481-2.773-6.747-.375-.966-.702-1.956-.915-2.971-.078-.374-.138-.743-.134-1.126.002-.197.007-.271,0-.416l.079-.318c-.121.259-.135.308-.044.145.126-.211-.019-.003-.055.032.119-.115.222-.257.337-.378.264-.276.551-.532.842-.779.586-.496,1.223-.929,1.859-1.359,3.421-2.312,6.895-4.555,10.356-6.807,2.126-1.383,4.259-2.756,6.4-4.118,1.035-.659,2.064-1.332,3.112-1.969.512-.312.926-.48,1.372-.197-.014-.009.161.148.255.214.027.019.335.561.1.102.032.063.052.136.081.2.136.303.248.619.37.928.296.749.588,1.499.878,2.251.823,2.132,1.632,4.269,2.436,6.409,2.108,5.615,4.174,11.247,6.196,16.894s4.024,11.342,5.887,17.063c.715,2.196,1.415,4.399,2.045,6.622.366,1.292,1.117,2.686-.372,3.406-7.045,3.411-14.245,6.532-21.36,9.794l-.647.297c-1.178.54-1.469,2.244-.861,3.284.708,1.21,2.101,1.403,3.284.861,7.133-3.271,14.266-6.541,21.399-9.812,2.234-1.025,3.938-2.909,3.932-5.524-.005-2.217-1.041-4.653-1.691-6.749-1.77-5.712-3.74-11.363-5.734-16.999-3.583-10.124-7.145-20.311-11.232-30.246-.826-2.008-2.388-3.492-4.591-3.832-2.54-.392-4.417,1.044-6.451,2.334-4.422,2.805-8.814,5.658-13.177,8.555-2.864,1.902-6.376,3.639-8.561,6.346-2.508,3.107-.709,7.479.617,10.721,5.372,13.125,10.913,26.181,16.363,39.274.624,1.499,1.247,2.998,1.868,4.497.496,1.196,1.591,2.05,2.952,1.676,1.131-.311,2.176-1.747,1.676-2.952h0Z"/><path class="e" d="M41.396,145.397l.06.182c-3.305,5.435-3.317,5.455-4.977,8.184-.453.745-.921,1.543-.903,2.414.021,1.057.746,1.954,1.46,2.733,2.995,3.27,6.463,6.106,10.263,8.391.781.47,1.58.918,2.434,1.238,2.17.812,4.633.735,6.801-.083.657-.248,1.294-.565,1.844-1.002,1.412-1.123,2.117-2.951,2.269-4.748.164-1.948-.246-3.898-.606-5.811,2.359.08,4.087-1.904,4.612-4.046.438-1.788.17-3.673-.247-5.466-.448-1.925-1.068-3.822-1.174-5.8,3.241-1.525,5.585-2.666,8.666-4.663,2.252-1.46,3.556-2.983,3.067-5.917-.146-.879-.752-2.365-2.312-2.805l.729-1.949c.484-1.642.673-3.428.145-5.057s-1.804-2.611-3.521-3.102c-.179-.051-.377-.083-.589-.093l.591-1.895c.499-1.692.694-3.532.15-5.21s-1.859-2.69-3.628-3.197c-1.069-.306-2.801.064-3.862.397-5.298,1.659-11.061,4.117-15.152,7.155,1.72-3.605,3.44-7.209,5.16-10.814,1.14-2.39,2.308-4.914,2.137-7.556s-1.717-5.08-4.365-5.018c-2.669.063-4.458,2.674-5.775,4.996-2.9,5.115-5.761,10.251-8.583,15.41-2.266,2.893-2.59,9.331-1.617,12.262,2.098,6.322,4.197,12.643,6.295,18.965l.627,1.905Z"/><path class="h" d="M34.484,110.455c-2.931,3.724-3.576,9.481-2.515,14.021.728,3.116,2.015,6.186,3.023,9.223,1.154,3.477,2.308,6.954,3.462,10.431.968,2.918,5.606,1.667,4.629-1.276-2.046-6.163-4.104-12.323-6.138-18.491-.6-1.818-.681-3.402-.53-5.398.077-1.018.259-2.02.542-3.001.212-.732.596-1.703.92-2.115.801-1.018.993-2.401,0-3.394-.833-.833-2.588-1.024-3.394,0h0Z"/><path class="h" d="M37.622,114.461c2.267-4.15,4.558-8.287,6.874-12.409,1.023-1.821,1.983-3.706,3.137-5.449.623-.941,1.589-2.283,2.814-2.344,1.006-.05,1.593.869,1.851,1.962.403,1.704-.166,3.505-.815,5.086-1.799,4.382-4.081,8.62-6.121,12.895-.558,1.169-.323,2.591.861,3.284,1.047.612,2.723.314,3.284-.861,1.897-3.976,3.839-7.933,5.688-11.932,1.676-3.624,2.943-7.701,1.07-11.517-1.643-3.346-5.564-4.633-8.872-2.909s-4.979,5.694-6.706,8.763c-2.431,4.321-4.834,8.657-7.211,13.008-1.482,2.712,2.661,5.137,4.145,2.423h0Z"/><path class="h" d="M72.321,116.741c.837-2.988.897-6.486-1.228-8.969-1.93-2.255-4.807-2.867-7.618-2.354-2.702.494-5.386,1.667-7.906,2.726-2.837,1.192-5.599,2.548-8.166,4.253s-.16,5.86,2.423,4.145c3.925-2.607,8.299-4.46,12.769-5.909,1.694-.549,3.159-1.059,4.534-.052.488.357.78.931.903,1.677.178,1.083-.048,2.167-.339,3.206-.834,2.979,3.795,4.251,4.629,1.276h0Z"/><path class="h" d="M75.695,126.888c.823-2.93.855-6.298-1.186-8.746-1.773-2.126-4.525-2.806-7.164-2.383-2.471.396-4.956,1.394-7.272,2.317-2.526,1.006-4.94,2.197-7.205,3.704-1.078.717-1.542,2.119-.861,3.284.626,1.07,2.2,1.582,3.284.861,3.552-2.363,7.383-3.824,11.438-5.082.87-.27,1.6-.463,2.397-.46.419.001-.406-.135.242.023.082.02.588.194.488.154.09.037.755.428.801.467.149.124.287.289.43.545.096.172.008-.068.125.261.075.209.146.463.183.676.177,1.042-.047,2.104-.328,3.105-.837,2.979,3.793,4.25,4.629,1.276h0Z"/><path class="h" d="M60.858,141.988c.15,1.505.459,2.962.832,4.425.337,1.322.703,2.72.768,3.844.018.321.025.642.013.963-.006.183-.018.365-.036.547.028-.185.016-.126-.036.176-.069.3-.151.589-.245.882-.099.261-.101.267-.007.021-.046.097-.095.193-.148.286-.12.219-.25.434-.4.634.301-.403-.262.237-.328.306-.209.179-.211.185-.004.018-.114.08-.232.154-.353.222-.248.123-.246.13.005.023-.132.05-.266.092-.402.127-1.206.345-2.078,1.71-1.676,2.952.397,1.227,1.659,2.046,2.952,1.676,3.36-.962,5.181-4.142,5.454-7.459.141-1.72-.19-3.486-.59-5.153-.183-.762-.388-1.518-.573-2.28-.097-.402-.19-.806-.27-1.212-.044-.225-.087-.451-.12-.678-.074-.499.053.562-.034-.319-.124-1.245-1.015-2.462-2.4-2.4-1.194.053-2.533,1.062-2.4,2.4h0Z"/><path class="h" d="M36.995,148.295c-1.077,1.77-2.353,3.533-3.217,5.416-1.126,2.455-.388,4.64,1.293,6.598,2.939,3.424,6.644,6.356,10.467,8.728,2.093,1.299,4.24,2.278,6.728,2.447,2.287.155,4.846-.377,6.804-1.599,4.63-2.892,4.251-8.509,3.368-13.186-.241-1.274-1.776-1.999-2.952-1.676-1.336.367-1.918,1.674-1.676,2.952.514,2.722,1.287,6.805-1.914,8.166-3.341,1.421-6.241-.11-9.019-1.943-2.758-1.821-5.282-3.963-7.559-6.358-.361-.38-1.16-1.001-1.291-1.538-.135-.555.499-1.284.768-1.728.78-1.287,1.564-2.571,2.346-3.857,1.609-2.646-2.54-5.061-4.145-2.423h0Z"/><path class="h" d="M65.911,142.961c2.617-1.255,5.228-2.592,7.617-4.249,2.241-1.554,3.885-3.611,3.937-6.449.049-2.676-1.235-5.304-3.848-6.267-1.881-.694-4.309-.349-6.205.1-2.927.693-5.689,2.121-8.258,3.65-1.079.642-1.567,2.188-.861,3.284.7,1.086,2.129,1.548,3.284.861,1.113-.662,2.247-1.292,3.417-1.848.238-.113.478-.223.719-.33.1-.044.2-.088.3-.131-.408.173-.07.031.012,0,.459-.173.916-.349,1.383-.499.813-.26,1.633-.433,2.47-.588.264-.049-.264.034-.259.035.061.016.223-.025.297-.032.169-.016.338-.028.508-.037.348-.018.696-.022,1.044-.009.178.006.357.015.535.031-.584-.054.379.147.047.026-.297-.108.009.026.044.033.115.026.365.313-.06-.081.061.056.122.115.185.168.385.332.021-.059-.007-.057.068-.005.237.387.281.46.283.479-.073-.334.008.019.032.14.076.287.116.425.016.055.059.306.02.067-.048-.289.021.319.021.32.011.223-.033.468-.006.685.031.254.023-.134.034-.182-.025.115-.042.231-.07.345-.023.094-.224.697-.094.357.117-.306-.155.255-.224.376-.282.494.202-.175-.079.12-.141.148-.276.299-.424.44-.155.147-.321.278-.48.419.416-.372-.256.176-.375.256-2.359,1.591-4.89,2.908-7.452,4.136-1.135.544-1.524,2.256-.861,3.284.752,1.166,2.07,1.443,3.284.861h0Z"/><path class="h" d="M41.892,89.712c.096-.078.193-.155.291-.231l-.486.375c.4-.309.816-.596,1.247-.86.28-.151.504-.357.673-.618.212-.232.355-.504.43-.816.1-.319.114-.638.043-.957-.014-.319-.109-.617-.285-.892l-.375-.486c-.299-.297-.652-.503-1.059-.617l-.638-.086c-.433.001-.837.111-1.211.328-.71.436-1.377.94-2.023,1.467-.234.217-.399.475-.496.772-.15.286-.219.594-.207.925-.012.33.056.639.207.925.097.298.262.555.496.772l.486.375c.374.217.778.326,1.211.328l.638-.086c.407-.114.76-.32,1.059-.617h0Z"/></g></svg>