<?xml version="1.0" encoding="UTF-8"?><svg id="b" xmlns="http://www.w3.org/2000/svg" width="235.232" height="242.011" viewBox="0 0 235.232 242.011"><defs><style>.d{fill:#fff;}.e{fill:none;}.f{fill:#211715;}.g{fill:#645d5c;}</style></defs><g id="c"><path class="d" d="M159.768,135.444c4.074-6.137,6.603-12.37,8.137-17.72,2.743.796,5.746-.214,7.722-1.831,4.358-3.566,6.166-8.539,7.27-11.79,1.558-4.59,1.656-12.009-.665-16.035-.778-1.349-2.585-3.646-6.832-3.796-1.952-.069-4.232.542-5.925,2.169l-2.857.15c-1.424.075-2.712-.839-3.09-2.214-1.026-3.729-2.87-8.991-3.685-11.489-2.702-7.162-4.727-15.04-9.329-17.23-4.79-2.28-27.115,1.693-33.391,1.682-6.669-.011-29.769-3.402-34.559-1.121-4.601,2.19-6.533,10.905-8.36,16.542-.573,2.256-2.363,7.887-3.389,11.616-.378,1.375-1.667,2.289-3.09,2.214l-2.857-.15-.253-.013c-1.704-1.617-3.976-2.224-5.922-2.156-4.247.15-6.054,2.447-6.832,3.796-2.321,4.026-2.223,11.445-.665,16.035,1.104,3.251,2.911,8.224,7.27,11.79,1.913,1.565,4.787,2.562,7.458,1.903,1.949,6.771,5.492,14.945,11.737,22.545,4.394,5.347,8.995,9.458,14.054,12.231,0,1.037,0,1.987-.012,2.828,6.316,1.918,15.282,4.222,25.874,4.222s19.639-2.324,25.959-4.248c-.012-1.182-.012-2.554-.012-4.029,4.521-2.546,8.491-5.972,12.627-11.004,1.325-1.613,2.529-3.251,3.621-4.896Z"/><path class="e" d="M91.713,153.957v5.515c0,1.437,0,3.004-.531,4.402-.712,1.838-1.67,3.431-3.211,4.674-3.263,2.628-6.616,3.884-10.746,5.438l-5.658,2.227"/><path class="e" d="M143.52,152.74v6.732c0,1.437,0,3.004.531,4.402.712,1.838,1.67,3.431,3.211,4.674,3.263,2.628,6.616,3.884,10.746,5.438l5.645,2.227"/><path class="f" d="M89.313,153.957v4.898c0,1.638.072,3.23-.605,4.758-1.299,2.932-4.048,4.565-6.836,5.909-3.517,1.694-7.308,2.947-10.943,4.377-1.205.474-2.046,1.607-1.676,2.952.316,1.148,1.739,2.154,2.952,1.676,4.339-1.708,8.91-3.169,13.037-5.337,3.418-1.796,6.336-4.168,7.884-7.782,1.513-3.534.987-7.688.987-11.451,0-3.089-4.8-3.094-4.8,0h0Z"/><path class="f" d="M141.12,152.74v5.414c0,2.117-.104,4.333.617,6.359,1.371,3.856,4.225,6.457,7.738,8.4,4.24,2.345,9.033,3.837,13.54,5.615,1.206.476,2.635-.522,2.952-1.676.374-1.363-.466-2.475-1.676-2.952-3.795-1.497-7.784-2.788-11.426-4.621-2.82-1.42-5.663-3.238-6.632-6.426-.53-1.742-.313-3.721-.313-5.517v-4.594c0-3.089-4.8-3.094-4.8,0h0Z"/><path class="g" d="M2.415,239.665c6.741-24.267,25.275-45.08,46.893-56.58,6.079-3.236,12.408-5.936,18.9-8.059,3.348-1.095,6.101-3.508,7.562-6.714,1.496-3.284,2.628-6.077,4.152-9.707.886-2.111,3.821-5.704,7.179-4.649,6.093,1.915,16.959,5.664,30.472,5.664s24.379-3.749,30.472-5.664c3.359-1.056,6.294,2.538,7.179,4.649,1.519,3.62,2.65,6.408,4.14,9.68,1.463,3.213,4.224,5.628,7.581,6.72,6.52,2.122,12.876,4.83,18.979,8.079,21.618,11.5,40.152,32.313,46.893,56.58"/><path class="e" d="M74.404,176.682c9.338,7.301,25.654,13.095,42.641,13.145,16.986-.05,33.302-5.844,42.641-13.145"/><path class="f" d="M4.729,240.303c5.43-19.359,18.303-36.355,34.498-48.087,9.039-6.547,19.093-11.259,29.619-14.876,2.448-.841,4.706-2.17,6.468-4.087,1.85-2.013,2.863-4.42,3.931-6.898,1.052-2.441,1.868-5.15,3.209-7.446.705-1.208,2.115-2.923,3.654-2.735.727.089,1.503.461,2.201.682.881.279,1.763.556,2.647.825,1.987.605,3.986,1.17,6.002,1.672,5.302,1.321,10.73,2.209,16.187,2.534,10.636.634,21.183-1.186,31.327-4.292,1.449-.444,3.063-1.237,4.567-1.422,1.625-.2,3.089,1.685,3.788,2.972,2.519,4.638,3.394,10.289,7.123,14.223,1.813,1.912,4.098,3.197,6.579,4.025,2.889.964,5.749,2.005,8.559,3.18,5.135,2.148,10.14,4.677,14.879,7.6,16.943,10.453,31.12,26.435,38.238,45.14.873,2.294,1.636,4.627,2.298,6.99.833,2.97,5.466,1.708,4.629-1.276-5.717-20.381-19.154-38.038-36.083-50.502-9.239-6.802-19.712-11.91-30.577-15.54-2.227-.744-4.223-1.769-5.705-3.658-1.609-2.051-2.476-4.791-3.477-7.172-1.026-2.439-1.829-5.036-3.483-7.135-1.514-1.92-3.628-3.436-6.125-3.632-1.908-.149-3.87.767-5.664,1.325-2.013.626-4.037,1.22-6.077,1.75-5.15,1.34-10.397,2.278-15.711,2.611-10.679.668-21.076-1.236-31.234-4.403-1.884-.587-3.844-1.477-5.85-1.24-2.491.294-4.51,1.891-5.994,3.832-1.635,2.139-2.426,4.839-3.466,7.297-.971,2.295-1.814,4.928-3.4,6.884-1.608,1.983-3.69,2.91-6.042,3.711-2.996,1.02-5.943,2.169-8.853,3.412-5.247,2.242-10.362,4.828-15.196,7.865-17.668,11.098-32.12,27.711-39.659,47.245-.93,2.41-1.739,4.864-2.437,7.351-.836,2.979,3.794,4.251,4.629,1.276h0Z"/><path class="f" d="M120.016,239.692v-75.216c0-3.089-4.8-3.094-4.8,0v75.216c0,3.089,4.8,3.094,4.8,0h0Z"/><path class="f" d="M62.576,114.359c1.718,7.799,4.834,15.365,9.221,22.044,4.68,7.125,10.84,13.81,18.325,18.03,3.811,2.149,7.983,3.613,12.308,4.272,1.28.195,2.58-.323,2.952-1.676.312-1.135-.387-2.756-1.676-2.952-15.542-2.369-27.115-15.986-32.973-29.808-1.527-3.602-2.687-7.367-3.529-11.186-.664-3.015-5.293-1.739-4.629,1.276h0Z"/><path class="f" d="M166.599,113.083c-1.479,6.717-3.998,13.156-7.566,19.042-3.776,6.228-8.752,12.133-14.94,16.078-3.147,2.006-6.55,3.463-10.09,4.616-2.925.952-1.673,5.589,1.276,4.629,6.957-2.265,13.223-5.732,18.459-10.888,6.096-6.002,10.771-13.311,14.035-21.193,1.474-3.559,2.626-7.246,3.455-11.008.663-3.01-3.963-4.296-4.629-1.276h0Z"/><path class="f" d="M107.448,130.172c3.165,1.671,6.574,2.368,10.151,2.344,3.615-.023,7.292-.724,10.19-2.982,1.023-.797.837-2.557,0-3.394-1.01-1.01-2.368-.799-3.394,0,.712-.554.1-.089-.082.028-.206.132-.419.255-.636.369-.152.08-.902.392-.299.162-.291.111-.581.223-.878.319-1.868.601-3.241.711-5.232.699-1.949-.012-3.172-.128-4.991-.672-.321-.096-.635-.211-.952-.32-.103-.035-.202-.089-.307-.119.592.173.176.079.018.004-.394-.185-.781-.379-1.166-.582-1.146-.605-2.61-.291-3.284.861-.634,1.084-.289,2.676.861,3.284h0Z"/><path class="e" d="M118.818,105.458c.27,1.027.878,3.547,1.077,4.849.128.642.214,1.485-.354,1.81-1.146.654-1.828.318-2.419.247"/><path class="f" d="M88.758,91.444c-.868,2.821-.302,9.312,5.043,9.864,7.065-.042,7.44-7.889,5.062-11.578-1.947-3.021-7.672-4.277-10.105,1.715Z"/><path class="f" d="M145.331,91.444c.868,2.821.303,9.312-5.042,9.864-7.065-.043-7.441-7.889-5.063-11.579,1.947-3.021,7.672-4.277,10.105,1.715Z"/><path class="f" d="M66.313,84.744c-3.438-3.121-8.556-3.74-12.69-1.616-2.983,1.532-4.648,4.612-5.361,7.776-1.696,7.532.223,16.069,4.625,22.385,3.108,4.459,7.523,7.72,13.181,6.929,1.285-.18,1.988-1.819,1.676-2.952-.38-1.383-1.663-1.857-2.952-1.676-3.178.445-5.967-2.202-7.65-4.568-1.638-2.303-2.75-4.886-3.634-7.556-.964-2.914-1.211-6.028-.957-9.078.116-1.396.384-2.832.906-4.137.176-.44.397-.862.65-1.262.102-.162.209-.323.325-.475-.281.367.255-.255.353-.355.718-.73,1.997-1.291,3.268-1.444,1.754-.211,3.542.223,4.866,1.424,2.283,2.072,5.687-1.312,3.394-3.394h0Z"/><path class="f" d="M171.171,88.138c2.047-1.859,5.508-1.988,7.732-.345.123.091.597.551.868.873-.247-.293.031.04.112.168.12.19.239.379.348.576.671,1.209.999,2.628,1.2,3.985.842,5.691-.731,11.688-3.753,16.532-1.721,2.758-4.732,6.172-8.379,5.662-1.282-.179-2.578.312-2.952,1.676-.309,1.123.384,2.772,1.676,2.952,9.354,1.309,14.761-7.976,17.237-15.625,1.25-3.86,1.434-8.122.854-12.117-.494-3.406-1.813-6.686-4.675-8.748-4.077-2.937-10.037-2.274-13.661,1.017-2.292,2.081,1.11,5.467,3.394,3.394h0Z"/><path class="d" d="M164.34,23.709c8.306,9.14,15.124,22.207,15.886,40.243.3,7.11-.536,12.907-2.501,20.658-.68-.186-1.451-.308-2.326-.339-1.952-.069-4.232.542-5.925,2.169l-2.857.15c-1.424.075-2.712-.839-3.09-2.214-1.026-3.729-2.87-8.991-3.685-11.489-2.702-7.162-4.727-15.04-9.329-17.23-4.79-2.28-27.115,1.693-33.391,1.682-6.669-.011-29.769-3.402-34.559-1.121-4.601,2.19-6.533,10.905-8.36,16.542-.573,2.256-2.363,7.887-3.389,11.616-.378,1.375-1.667,2.289-3.09,2.214l-2.857-.15s-.108-.006-.265-.015c-1.691-1.616-3.964-2.223-5.91-2.154-.975.034-1.822.182-2.556.406-1.988-7.273-2.832-14.476-2.568-20.725,1.057-25.016,14.269-40.471,25.936-49.148,10.048-7.473,22.604-11.931,37.391-11.931,16.003,0,28.297,5.105,38.809,12.963,2.932,2.214,5.868,4.825,8.638,7.874Z"/><path class="e" d="M55.882,83.733c-1.807-6.951-2.569-13.802-2.316-19.781,1.057-25.016,14.269-40.471,25.936-49.148,10.048-7.473,22.604-11.931,37.391-11.931,15.448,0,27.44,4.757,37.71,12.156,12.076,8.718,24.575,24.122,25.623,48.924.289,6.839-.474,12.464-2.281,19.781"/><path class="f" d="M76.517,73.399c1.243-3.865,2.15-7.942,4.083-11.542.819-1.524,1.702-2.627,2.947-3.451.478-.316-.533.101.232-.095.186-.047.368-.105.555-.148.265-.062.534-.106.802-.151.124-.021.459-.051-.102.013.191-.022.382-.043.574-.061,6.864-.637,13.97.362,20.802.986,3.077.281,6.157.604,9.244.748,2.357.11,4.698-.121,7.041-.364,7.155-.744,14.322-1.856,21.525-1.976.78-.013,1.562-.011,2.342.021.378.016.756.038,1.134.071.159.014.317.031.475.047.514.053-.458-.096.065.011.486.1.95.203,1.419.366-.841-.292.447.293.596.405.319.239.738.668,1.044,1.019,1.446,1.662,2.376,3.851,3.181,5.881,1.091,2.754,2.013,5.571,3.053,8.344.455,1.213,1.622,2.042,2.952,1.676,1.165-.32,2.134-1.732,1.676-2.952-1.808-4.823-3.147-10.145-6.037-14.468-1.148-1.718-2.597-3.356-4.502-4.245-1.269-.592-2.633-.778-4.019-.894-3.332-.278-6.728.017-10.049.305-3.941.341-7.87.811-11.801,1.254-2.854.321-5.749.737-8.626.739-2.857.002-5.728-.336-8.57-.593-7.332-.665-14.856-1.717-22.229-1.237-1.375.089-2.821.207-4.126.679-2.135.773-3.723,2.45-4.95,4.307-2.76,4.179-3.845,9.321-5.359,14.027-.948,2.948,3.685,4.21,4.629,1.276h0Z"/><path class="f" d="M169.474,84.041c-.911.048-1.823.103-2.734.143-.218.01-.784-.121-.243.038-.142-.042-.613-.243-.13.011-.111-.052-.219-.111-.323-.176-.22-.15-.204-.136.048.042-.112-.122-.36-.53-.103-.074-.069-.104-.131-.212-.186-.324.1.255.123.299.067.13-.078-.439-.25-.883-.376-1.311-1.016-3.454-2.218-6.849-3.337-10.27-.39-1.191-1.678-2.089-2.952-1.676-1.189.385-2.094,1.675-1.676,2.952,1.221,3.732,2.55,7.432,3.609,11.215.705,2.518,2.819,4.317,5.501,4.248.946-.024,1.892-.099,2.837-.149,1.252-.066,2.46-1.057,2.4-2.4-.056-1.244-1.057-2.47-2.4-2.4h0Z"/><path class="f" d="M71.888,72.123c-.877,3.418-2.004,6.772-2.979,10.163-.123.426-.24.854-.362,1.28-.031.12-.066.24-.105.358.114-.248.131-.295.051-.14-.346.474.247-.074-.113.188-.197.179-.174.173.069-.016-.1.071-.203.136-.311.195-.408.272.389-.153-.112.031-.27.056-.242.058.082.007-.128.009-.256.01-.384.004-.024,0-.047-.003-.071-.004-.929-.031-1.858-.097-2.786-.146-1.256-.066-2.456,1.151-2.4,2.4.061,1.357,1.055,2.329,2.4,2.4.949.05,1.899.127,2.849.149,1.404.033,2.73-.465,3.788-1.377.958-.826,1.437-1.935,1.771-3.126,1.04-3.706,2.286-7.359,3.242-11.088.312-1.214-.397-2.661-1.676-2.952-1.25-.285-2.618.375-2.952,1.676h0Z"/><path class="d" d="M117.163,109.92c-7.703,0-20.338,1.485-29.109,2.762-1.529.223-5.315.555-6.312,1.679-1.855,2.091-1.151,6.553-1.391,9.088-.385,4.062,0,8.693.361,12.163.556,5.345.825,11.041,4.489,15.211,6.773,7.708,22.469,11.812,32.78,11.812,6.645,0,14-1.439,20.177-3.654,5.623-2.016,10.881-5.398,13.823-10.26,2.775-4.585,2.666-9.182,3.262-14.405.428-3.754.549-7.722.214-11.064-.254-2.529.391-6.66-1.486-8.776-.997-1.124-4.117-1.573-5.648-1.779-9.634-1.293-22.601-2.777-31.16-2.777Z"/><path class="f" d="M117.163,107.52c-7.561.019-15.143.924-22.633,1.879-1.907.243-3.813.499-5.717.768-.408.058-.817.116-1.225.176-.565.083.36-.047-.082.013-.127.017-.254.033-.381.049-.917.12-1.838.234-2.748.403-1.515.281-3.226.708-4.332,1.856-1.297,1.345-1.722,3.244-1.92,5.036-.186,1.681-.064,3.367-.131,5.052-.082,2.04-.238,4.051-.176,6.097.126,4.176.558,8.395,1.139,12.531.563,4.007,1.759,7.855,4.416,10.986,2.084,2.456,4.859,4.381,7.667,5.917,13.452,7.359,29.733,8.392,44.3,4.133,7.571-2.213,15.445-6.14,19.25-13.44,1.97-3.78,2.413-7.919,2.798-12.098.42-4.568.843-9.037.47-13.627-.273-3.351.377-7.134-1.81-9.996-2.093-2.739-6.469-2.798-9.592-3.206-7.965-1.041-15.968-1.975-23.993-2.381-1.765-.089-3.532-.145-5.299-.149-3.089-.007-3.093,4.793,0,4.8,7.172.016,14.348.757,21.466,1.569,3.369.384,6.881.759,10.136,1.278.708.113,1.415.247,2.108.433.317.085.635.175.941.294.22.085.335.155.378.197.735.733.729,2.318.766,3.311.132,3.621.401,7.259.219,10.882-.19,3.77-.468,7.714-1.165,11.428-.667,3.552-2.215,6.627-4.809,9.158-2.414,2.355-5.435,4.139-8.562,5.376-7.034,2.782-14.907,4.274-22.476,3.949-6.187-.265-12.403-1.675-18.162-3.932-5.336-2.091-11.403-5.4-13.325-11.176-1.096-3.294-1.302-6.806-1.642-10.236-.392-3.959-.478-7.843-.254-11.812.084-1.49-.021-2.985.07-4.476.038-.625.106-1.251.306-1.848.098-.293.151-.439.309-.678.117-.177-.045.012.089-.047.812-.357,2.46-.635,3.647-.797,1.109-.151,2.969-.413,4.34-.601,7.018-.964,14.084-1.783,21.162-2.145,1.485-.076,2.972-.124,4.46-.128,3.088-.008,3.094-4.808,0-4.8Z"/><path class="f" d="M83.289,111.165c-5.483-7.778-10.12-16.099-15.354-24.039-1.693-2.568-5.852-.166-4.145,2.423,5.235,7.94,9.871,16.261,15.354,24.039.746,1.058,2.097,1.555,3.284.861,1.046-.612,1.612-2.219.861-3.284h0Z"/><path class="f" d="M155.319,113.587c5.483-7.778,10.12-16.099,15.354-24.039,1.705-2.586-2.45-4.993-4.145-2.423-5.235,7.94-9.871,16.261-15.354,24.039-.747,1.06-.19,2.669.861,3.284,1.2.702,2.535.201,3.284-.861h0Z"/><path class="f" d="M129.303,108.194c-3.682-2.464-5.907-6.709-6.306-10.98-.399-4.272,1.262-8.716,4.542-11.651,3.28-2.935,9.249-3.538,13.398-3.538,3.836,0,7.529,1.273,9.997,2.442,2.468,1.169,4.664,2.995,5.834,5.374,1.298,2.638,1.238,5.685.968,8.587-.103,1.106-.235,2.221-.627,3.267-.39,1.043-1.223,2.407-1.939,3.279-2.201,2.68-4.137,4.375-8.271,5.31-1.345.304-11.106,2.253-17.596-2.09Z"/><path class="f" d="M104.786,108.194c3.682-2.464,5.907-6.709,6.306-10.98.399-4.272-1.262-8.716-4.542-11.651-3.28-2.935-9.249-3.538-13.398-3.538-3.836,0-7.529,1.273-9.997,2.442-2.468,1.169-4.664,2.995-5.834,5.374-1.298,2.638-1.238,5.685-.968,8.587.103,1.106.235,2.221.627,3.267.39,1.043,1.223,2.407,1.939,3.279,2.201,2.68,4.137,4.375,8.271,5.31,1.345.304,11.106,2.253,17.596-2.09Z"/><path class="f" d="M130.514,106.121c-5.125-3.543-6.665-10.945-3.465-16.246,1.571-2.601,3.877-3.982,6.778-4.702s6.173-.998,9.16-.632c3.1.379,6.56,1.481,9.084,3.382,2.881,2.169,3.553,5.303,3.392,8.75-.072,1.542-.128,3.221-.796,4.641-.633,1.347-1.581,2.509-2.614,3.568-1.708,1.751-3.751,2.668-6.134,3.161-.365.075-.732.14-1.099.199-.23.037-.461.072-.692.104.455-.062-.258.027-.398.042-1.387.149-2.783.218-4.178.188-3.182-.068-6.339-.7-9.039-2.453-2.598-1.687-5.007,2.466-2.423,4.145,5.431,3.527,12.552,3.641,18.733,2.477,3.013-.568,5.81-1.822,8.067-3.921,1.315-1.223,2.524-2.672,3.443-4.213,1.195-2.004,1.617-4.1,1.821-6.4.398-4.488-.15-8.954-3.304-12.397-2.747-3-6.913-4.703-10.812-5.579-3.946-.886-8.077-.726-12.037,0-3.912.718-7.446,2.381-9.931,5.56-5.995,7.67-3.879,19.012,4.02,24.472,1.067.737,2.664.198,3.284-.861.697-1.192.208-2.545-.861-3.284Z"/><path class="f" d="M105.998,110.266c7.003-4.841,9.576-14.356,5.653-21.981-1.843-3.581-4.902-6.085-8.701-7.337-3.543-1.167-7.68-1.576-11.397-1.253-4.045.352-8.444,1.61-11.799,3.97-3.831,2.695-5.813,6.568-5.95,11.245-.063,2.158.068,4.532.613,6.625.526,2.02,1.703,3.814,3.024,5.399,2.361,2.834,5.295,4.763,8.907,5.615,6.353,1.497,14.04,1.359,19.648-2.283,2.581-1.676.178-5.834-2.423-4.145-2.364,1.535-5.101,2.234-7.897,2.406-1.333.082-2.672.067-4.005-.025-.521-.036-1.039-.09-1.558-.143-.117-.012-.235-.028-.352-.042.037.005.366.052.093.013-.256-.036-.511-.076-.765-.118-2.052-.343-4.121-.898-5.801-2.179-2.087-1.591-4.023-4.045-4.433-6.681-.49-3.153-.67-7.057,1.399-9.715,1.96-2.519,5.24-3.786,8.23-4.57,3.061-.802,6.286-.795,9.41-.355,2.856.403,5.762,1.2,7.788,3.359,4.848,5.167,3.663,14.061-2.109,18.051-1.065.736-1.551,2.105-.861,3.284.617,1.055,2.212,1.602,3.284.861Z"/><path class="f" d="M157.893,94.35c2.895,0,5.79,0,8.686,0,1.255,0,2.458-1.104,2.4-2.4s-1.055-2.4-2.4-2.4c-2.895,0-5.79,0-8.686,0-1.255,0-2.458,1.104-2.4,2.4s1.055,2.4,2.4,2.4h0Z"/><path class="f" d="M76.51,89.55c-3,0-6,0-9,0-1.255,0-2.458,1.104-2.4,2.4s1.055,2.4,2.4,2.4c3,0,6,0,9,0,1.255,0,2.458-1.104,2.4-2.4s-1.055-2.4-2.4-2.4h0Z"/><path class="f" d="M111.09,95.481c3.97,0,7.939,0,11.909,0,1.255,0,2.458-1.104,2.4-2.4s-1.055-2.4-2.4-2.4c-3.97,0-7.939,0-11.909,0-1.255,0-2.458,1.104-2.4,2.4s1.055,2.4,2.4,2.4h0Z"/><path class="g" d="M173.151,33.731c-.291-.563-.59-1.122-.898-1.677-8.407-15.195-23.587-25.451-40.753-28.076l-5.653-.865c-6.725-1.029-13.573-.965-20.277.19-10.249,1.765-27.086,6.79-39.364,22.384-6.211,7.888-9.74,15.127-11.76,26.007-1.765,9.502-2.126,18.17.039,29.125.371,1.879,1.613,3.396,3.248,4.159.768,6.87,7.008,10.966,15.922,8.783,4.855-1.189,12.199-5.122,16.906-6.803,12.263-4.38,18.933-5.093,30.6-4.672,11.229.406,21.95,5.158,32.294,9.548,4.541,1.927,10.155,3.523,15.067,3.066,6.808-.633,11.469-3.842,10.236-11.177.814-.852,1.369-1.959,1.529-3.209,2.212-17.334-.058-33.102-7.136-46.783Z"/><path class="f" d="M175.223,32.52c-6.083-11.658-15.978-21.085-28.032-26.399-5.195-2.29-10.569-3.772-16.173-4.629-5.898-.902-11.746-1.72-17.738-1.434-11.471.547-23.09,3.964-32.907,9.945-11.324,6.899-20.559,17.692-25.27,30.122-2.508,6.619-3.767,13.799-4.307,20.839-.273,3.561-.274,7.141.006,10.702.158,2.012.405,4.018.708,6.013.293,1.933.498,3.996,1.377,5.768.768,1.55,2.099,2.825,3.636,3.602l-1.189-2.072c.502,4.043,2.399,7.646,5.974,9.786,3.828,2.292,8.555,2.356,12.79,1.357,4.596-1.084,8.916-3.365,13.213-5.259,4.44-1.957,9.098-3.495,13.813-4.638,4.308-1.044,8.664-1.546,13.094-1.628,5.297-.098,10.565.112,15.746,1.291,5.528,1.258,10.856,3.256,16.09,5.409,5.065,2.084,10.025,4.546,15.453,5.543,4.891.898,10.689.876,15.037-1.906,4.175-2.672,5.259-7.178,4.528-11.849l-.617,2.335c1.786-2.002,2.165-4.154,2.45-6.741.264-2.399.445-4.807.533-7.219.167-4.545.004-9.105-.551-13.621-1.087-8.847-3.587-17.38-7.664-25.319-1.412-2.749-5.555-.323-4.145,2.423,6.141,11.959,8.252,25.412,7.451,38.752-.109,1.818-.269,3.632-.476,5.442-.078.681-.127,1.383-.408,2.018-.411.929-1.288,1.441-1.288,2.569,0,1.173.296,2.5.107,3.504-.083.443-.202.895-.373,1.313.142-.347-.214.402-.196.37-.049.088-.502.778-.337.565-2.878,3.729-9.618,3.474-14.071,2.471-3.398-.765-6.572-2.083-9.766-3.437-3.442-1.459-6.891-2.908-10.403-4.195-6.943-2.543-14.052-4.256-21.465-4.472-6.099-.178-12.177.067-18.162,1.334-6.298,1.333-12.346,3.547-18.211,6.166-4.967,2.218-10.648,5.359-16.29,4.496-2.071-.317-3.868-1.189-5.211-2.676-.45-.498-1.006-1.401-1.247-1.985-.56-1.36-.356-3.154-1.545-4.086-1.043-.817-1.889-1.169-2.302-2.542-.51-1.695-.686-3.583-.916-5.336-.45-3.423-.636-6.885-.565-10.336.135-6.509,1.132-13.098,2.952-19.35,3.336-11.464,10.947-21.874,20.616-28.844,8.002-5.769,17.33-9.335,27.013-11.029,6.533-1.143,13.263-1.141,19.813-.139,4.167.637,8.329,1.212,12.389,2.389,11.05,3.204,21.151,9.962,28.039,19.222,1.836,2.468,3.431,5.089,4.854,7.815,1.429,2.74,5.573.316,4.145-2.423Z"/><path class="f" d="M66.076,78.403c12.486-6.099,26.088-10.102,39.909-11.607s27.762-.652,41.146,2.92c7.619,2.033,14.96,4.929,21.895,8.684,2.717,1.471,5.143-2.672,2.423-4.145-12.841-6.953-26.997-11.058-41.515-12.446-14.435-1.38-29.15.005-43.146,3.752-7.972,2.134-15.72,5.075-23.134,8.697-1.164.569-1.481,2.224-.861,3.284.695,1.188,2.115,1.432,3.284.861h0Z"/></g></svg>