<?xml version="1.0" encoding="UTF-8"?><svg id="b" xmlns="http://www.w3.org/2000/svg" width="263.977" height="313.058" viewBox="0 0 263.977 313.058"><defs><style>.e{fill:#fff;}.e,.f,.g,.h{stroke-width:0px;}.f{fill:#3f88c9;}.g{fill:#211715;}.h{fill:#645d5c;}</style></defs><g id="c"><g id="d"><path class="e" d="m88.125,310.644h-3.132c-.63,0-1.105-.57-.983-1.188,3.049-15.491,6.596-32.612,8.936-44.454,0,0,1.52-7.691,3.039-15.382h71.412c1.837,9.045,3.674,18.09,3.674,18.09,1.12,5.512,5.532,27.109,8.394,41.747.121.617-.353,1.186-.983,1.186h-90.357Z"/><path class="g" d="m90.632,264.365c-2.22,11.228-4.535,22.437-6.788,33.659-.603,3.005-1.204,6.011-1.798,9.018-.288,1.459-.79,2.947.027,4.331.63,1.068,1.724,1.599,2.928,1.672.514.031,1.041,0,1.556,0,8.844,0,17.688,0,26.532,0,13.044,0,26.088,0,39.132,0,8.405,0,16.81,0,25.215,0,1.244,0,2.415.008,3.41-.969,1.927-1.891.542-5.257.089-7.548-.496-2.513-.996-5.025-1.499-7.537-1.761-8.81-3.547-17.615-5.339-26.418-.237-1.166-.475-2.333-.712-3.499-.258-1.271-1.764-2.003-2.952-1.676-1.322.363-1.935,1.678-1.676,2.952,1.466,7.215,2.936,14.429,4.39,21.646.978,4.85,1.95,9.702,2.912,14.556.21,1.06.419,2.119.628,3.179.095.483.117,1.261.334,1.701l.065.334,1.396-1.52s-.01.002-.013,0c-.098-.058-.374.009-.484,0-2.487-.207-5.082,0-7.575,0-4.802,0-9.604,0-14.406,0h-37.717c-9.726,0-19.453,0-29.179,0h-3.235c-.238,0-.516-.04-.751,0-.037.006-.082-.01-.119,0-.002,0-.005,0-.007,0l1.418,1.407c.058-.296.117-.592.175-.889.147-.745.295-1.49.442-2.235,2.249-11.334,4.574-22.654,6.853-33.982.463-2.301.923-4.603,1.379-6.906.251-1.27-.362-2.591-1.676-2.952-1.18-.324-2.7.399-2.952,1.676h0Z"/><path class="g" d="m104.633,252.021h60.136c3.089,0,3.094-4.8,0-4.8h-60.136c-3.089,0-3.094,4.8,0,4.8h0Z"/><path class="g" d="m126.211,275.336h5.028c.615,0,1.262-.268,1.697-.703.416-.416.73-1.099.703-1.697-.058-1.3-1.055-2.4-2.4-2.4h-5.028c-.615,0-1.262.268-1.697.703-.416.416-.73,1.099-.703,1.697.058,1.3,1.055,2.4,2.4,2.4h0Z"/><path class="g" d="m127.877,300.765h36.301c3.089,0,3.094-4.8,0-4.8h-36.301c-3.089,0-3.094,4.8,0,4.8h0Z"/><path class="g" d="m97.288,300.765h17.811c3.089,0,3.094-4.8,0-4.8h-17.811c-3.089,0-3.094,4.8,0,4.8h0Z"/><path class="g" d="m145.655,288.904h5.333c.615,0,1.262-.268,1.697-.703.416-.416.73-1.099.703-1.697-.028-.621-.232-1.264-.703-1.697s-1.047-.703-1.697-.703h-5.333c-.615,0-1.262.268-1.697.703-.416.416-.73,1.099-.703,1.697.028.621.232,1.264.703,1.697s1.047.703,1.697.703h0Z"/><path class="g" d="m141.404,263.127h4.623c.615,0,1.262-.268,1.697-.703.416-.416.73-1.099.703-1.697-.028-.621-.232-1.264-.703-1.697s-1.047-.703-1.697-.703h-4.623c-.615,0-1.262.268-1.697.703-.416.416-.73,1.099-.703,1.697.028.621.232,1.264.703,1.697s1.047.703,1.697.703h0Z"/><path class="g" d="m2.318,238.318h38.5c3.089,0,3.094-4.8,0-4.8H2.318c-3.089,0-3.094,4.8,0,4.8h0Z"/><path class="g" d="m221.968,238.318h39.69c3.089,0,3.094-4.8,0-4.8h-39.69c-3.089,0-3.094,4.8,0,4.8h0Z"/><path class="e" d="m203.495,158.127c-3.875-5.274-7.776-9.016-14.022-12.752-5.225-3.117-16.087-8.414-25.02-11.603-8.209,5.732-21.974,8.954-33.633,9.216-11.524-.262-25.165-3.416-33.385-9.039-11.254,3.878-19.223,7.079-22.392,8.679-6.834,3.451-11.339,6.868-15.556,14.389-2.336,4.167-5.649,12.163-6.827,16.188-2.778,9.487-4.898,16.548-8.167,29.75-1.296,5.233-3.845,17.23-4.205,25.564-.438,10.117,2.872,14.935,10.056,17.742.448.175.766.246,1.123.298l8.268.762c1.185-4.392,4.95-9.417,7.23-11.899,3.321-3.615,10.109-5.224,14.77-5.937,6.501-.994,12.799-.923,18.324,3.705.94.788,2.117,1.703,3.337,2.72,19.787.003,48.996.003,68.565.003,3.492-1.73,6.229-2.479,10.099-3.017,4.039-.398,6.821-.477,10.865.171,3.658.586,6.233,2.287,8.856,4.033,1.582,1.053,4.95,4.639,5.777,6.4.561,1.195,1.023,2.359,1.368,3.499,8.99-1.857,14.923-9.725,14.459-20.395-.36-8.33-1.562-13.63-3.287-20.588-3.052-12.31-5.208-21.166-8.5-30.944-1.889-5.611-5.02-12.641-7.5-16.111-.202-.283-.403-.561-.604-.835Z"/><path class="h" d="m86.828,136.703c-8.79-1.26-14.14-8.89-14.1-14.67.05-4.78,1.17-12.62,2.48-17.33,1.93-6.88,3.302-18.979,3.302-35.759-.822-24.756,5.692-42.708,15.958-52.537,6.188-5.925,20.134-13.997,35.803-13.997,9.557,0,16.285,1.738,22.744,4.357l3.475,1.409c1.749,1.024,3.499,2.048,3.499,2.048,3.022,1.769,4.099,3.284,7.209,6.264,7.809,7.482,13.236,20.944,14.1,32.999.249,3.478.739,11.782.509,18.787.16,12.14,1.551,23.969,5.001,35.629,2,6.76,4.69,15.47,2.52,22.18-2.02,6.27-8.03,10.7-14.43,11.12"/><path class="e" d="m81.736,229.485c6.501-.994,12.799-.923,18.324,3.705,3.26,2.731,9.368,6.994,10.255,11.764.353,1.899-.601,4.984-2.621,6.109l-4.572,13.246c1.643,1.496,1.904,2.687,1.144,3.766-1.025,1.457-2.37,2.012-4.161,1.984s-3.006-.583-4.5-1.563c.618,1.229-2.778,3.088-3.666,3.326-3.296.883-5.677-.525-8.119-2.481,1.025,2.96-3.279,6.483-6.7,4.377-3.503-2.157-6.033-3.896-8.107-7.087-2.014-3.098-2.953-6.525-4.182-8.812-1.95-3.856-5.773-6.301-5.423-8.844.521-4.713,4.985-10.753,7.559-13.554,3.321-3.615,10.109-5.224,14.77-5.937"/><path class="g" d="m117.778,265.784c-.781-1.488-1.627-2.945-2.451-4.41-5.647-10.041-11.423-20.011-17.224-29.963-2.751-4.721-5.511-9.436-8.308-14.13-.961-1.613-1.925-3.224-2.906-4.824-.574-.936-1.111-1.909-2.029-2.556-1.933-1.362-4.325-.905-6.141.437-1.716,1.268-2.124,3.314-1.49,5.204.055.219.131.441.262.666,3.756,6.508,8.059,12.743,12.142,19.046,5.775,8.914,11.573,17.814,17.436,26.67,1.634,2.469,3.236,4.972,4.959,7.38,1.077,1.505,2.897,2.468,4.691,1.431,1.887-1.091,1.976-3.205,1.06-4.951Z"/><path class="g" d="m82.374,231.8c3.341-.5,6.858-.725,10.159.135,3.195.833,5.58,2.753,8.09,4.789,2.326,1.887,4.849,3.884,6.422,6.476,1.053,1.735,1.612,4.459-.563,5.791-2.63,1.61-.222,5.764,2.423,4.145,2.522-1.544,4.048-4.716,3.873-7.661-.183-3.075-2.081-5.769-4.112-7.951-1.994-2.142-4.332-3.911-6.587-5.763-2.733-2.244-5.72-3.958-9.219-4.673-3.915-.8-7.841-.502-11.761.084-1.283.192-1.99,1.81-1.676,2.952.377,1.374,1.665,1.869,2.952,1.676h0Z"/><path class="g" d="m75.697,265.317c2.045,2.3,4.335,4.402,6.911,6.098,1.051.692,2.7.243,3.284-.861.635-1.202.261-2.545-.861-3.284-.539-.355-1.064-.731-1.576-1.124l.486.375c-1.765-1.367-3.367-2.931-4.849-4.598-.837-.941-2.552-.917-3.394,0-.922,1.004-.892,2.39,0,3.394h0Z"/><path class="g" d="m80.581,257.99c4.248,4.605,8.818,8.795,13.812,12.58,1.005.761,2.728.192,3.284-.861.668-1.265.211-2.471-.861-3.284-.158-.119-.315-.239-.472-.359-.101-.077-.424-.327-.164-.125-.304-.236-.606-.473-.907-.712-.559-.445-1.114-.896-1.663-1.353-1.104-.92-2.185-1.866-3.242-2.839-2.227-2.049-4.34-4.217-6.392-6.441-.853-.925-2.541-.929-3.394,0-.909.99-.91,2.407,0,3.394h0Z"/><path class="g" d="m87.071,251.112c4.449,5.319,9.176,10.28,14.353,14.895.937.835,2.483.993,3.394,0,.838-.913,1.001-2.502,0-3.394-5.177-4.615-9.903-9.576-14.353-14.895-.809-.967-2.57-.897-3.394,0-.944,1.028-.863,2.363,0,3.394h0Z"/><path class="g" d="m81.098,227.171c-5.205.81-10.806,2.188-14.909,5.674-1.9,1.614-3.441,3.823-4.835,5.868-1.555,2.282-2.933,4.755-3.769,7.397-.826,2.609-.729,4.882.911,7.129,1.563,2.142,3.394,3.973,4.565,6.387,1.385,2.852,2.29,5.899,4.096,8.542,1.631,2.386,3.694,4.26,6.064,5.894,1.359.937,2.869,2.089,4.495,2.49,1.547.382,3.138.18,4.579-.469,2.778-1.25,4.735-4.319,3.839-7.38l-4.011,2.335c3.056,2.418,6.653,4.351,10.651,3.033,2.34-.771,6.221-3.248,5.145-6.213l-3.526,2.71c3.203,2.057,7.645,2.872,10.738.129,1.266-1.123,2.118-2.68,1.879-4.399-.262-1.882-1.646-3.294-3.077-4.421l-2.335,4.011c2.785.754,6.158.703,8.234-1.609,1.565-1.744,2.018-4.322.803-6.387-1.094-1.859-2.724-3.515-4.123-5.146-1.306-1.523-2.652-3.012-3.868-4.609-2.018-2.651-3.638-5.56-5.314-8.432-1.556-2.667-5.706-.254-4.145,2.423,1.648,2.825,3.244,5.683,5.214,8.301,1.49,1.98,3.107,3.832,4.718,5.712.839.978,1.674,1.959,2.481,2.964.055.069.634.821.322.403.126.168.255.336.372.511.088.131.172.264.257.397.09.172.07.115-.059-.169.038.11.068.222.09.335-.034-.318-.046-.385-.037-.199.005.09.004.18-.002.27.29-.543-.044.102-.109.271.259-.676-.275.326-.057.042.235-.307-.564.479-.093.12-.093.071-.787.396-.494.291.01-.004-.66.182-.432.143-.838.143-1.679-.043-2.483-.26-2.148-.581-4.306,2.458-2.335,4.011.486.383.996.769,1.399,1.242.128.151.449.582.391.574-.165-.022.014-.389-.008-.463.058.199-.173.233.001.04-.21.232-.358.476-.632.654-1.529.99-3.551-.046-4.873-.895-1.689-1.085-4.242.736-3.526,2.71l-.011-.319c.253-.704.294-.909.121-.613.005.004.033-.012-.059.04-.296.167-.312.297-.67.529-.363.236-.742.433-1.122.639-.233.127-.206.083.021.006-.161.055-.316.102-.483.143-2.108.523-3.979-.655-5.571-1.915-1.743-1.379-4.747-.178-4.011,2.335.097.333.131.243.01.57.115-.309-.333.559-.207.391-.408.54-1.114.943-1.708,1.01-.892.101-1.58-.491-2.326-.963-.994-.629-1.992-1.27-2.909-2.009-1.894-1.526-3.303-3.367-4.412-5.525-1.143-2.225-1.889-4.631-3.05-6.846-1.129-2.154-2.807-3.858-4.257-5.781-.233-.309-.453-.636-.644-.974-.142-.251-.183-.187-.234-.593.048.38.078-.45.105-.585.108-.548.268-1.089.448-1.618.719-2.117,1.925-4.084,3.178-5.923,1.067-1.567,2.233-3.152,3.607-4.467,3.36-3.218,8.849-4.182,13.268-4.869,1.282-.199,1.992-1.805,1.676-2.952-.376-1.368-1.667-1.876-2.952-1.676h0Z"/><path class="e" d="m182.377,271.486c-.56.372-1.12.721-1.665,1.029-1.26.712-4.127,1.542-5.941.504-1.123-.643-1.707-1.702-1.809-2.812-.102.06-.158.093-.158.093-2.436,1.434-6.365,2.153-8.546.244-1.269-1.111-2.037-4.147-.513-6.348.208-.373.498-.776.856-1.204-1.268.497-3.64,1.146-5.009-1.705-.905-1.887-.107-4.808,2.167-6.992.859-.824,2.639-2.932,4.401-4.477.378-.329.762-.656,1.147-.979l-1.6-.238c-1.177.071-2.606-1.018-3.191-2.144-.494-.951-.355-2.446-.011-3.38.802-2.177,4.49-4.562,8.3-6.576,4.072-2.153,6.97-3.007,11.256-3.604,4.039-.398,6.821-.477,10.865.171,3.658.586,6.233,2.287,8.856,4.033,1.582,1.053,4.95,4.639,5.777,6.4,1.493,3.178,2.279,6.138,2.053,9.02-.376,4.785-1.603,7.479-4.591,10.59-1.739,1.81-4.768,4.57-6.728,6.121-2.749,2.175-5.386,2.458-7.305,1.635-1.544-.662-1.717-3.571-1.096-4.723,0,0,.059-.109.118-.218l-.056.039c-.615.431-1.154.807-1.554,1.09-1.406.996-3.722,2.905-6.023,4.431Z"/><path class="g" d="m177.478,248.551c-2.466,1.934-4.864,3.948-7.234,5.997-2.048,1.771-4.166,3.487-6.086,5.398-1.975,1.965-3.769,4.352-3.65,7.283s1.653,5.402,4.457,6.421c2.925,1.064,6.435.211,9.052-1.278,2.684-1.528.269-5.676-2.423-4.145-.891.507-2.096.937-3.016,1.036-.606.065-1.225.053-1.572-.02-.519-.108-.909-.304-1.049-.397-.101-.089-.196-.186-.283-.289.157.199.155.179-.005-.06-.19-.455,0,.131-.158-.323-.217-.628-.26-.833-.197-1.508.075-.804.846-1.84,1.394-2.447,1.955-2.162,4.283-3.985,6.482-5.89,2.517-2.181,5.061-4.33,7.683-6.385,1.021-.801.839-2.555,0-3.394-1.008-1.008-2.371-.803-3.394,0h0Z"/><path class="g" d="m162.962,260.997c-.575.12.479.039-.131.026-.111-.002-.709-.063-.172.04-.057-.011-.603-.113-.323-.068.072.012-.076-.046-.107-.074-.035-.032-.342-.403-.246-.269-.048-.067-.379-.843-.244-.421-.031-.097-.143-.73-.096-.281-.022-.205-.016-.412-.009-.617.014-.167.008-.168-.019-.002l.049-.261c.055-.268.127-.537.22-.794.142-.392.392-.853.692-1.28.513-.73,1.213-1.328,1.821-1.98,3.329-3.572,7.092-6.551,10.965-9.507,1.029-.785,1.572-2.067.861-3.284-.592-1.013-2.247-1.652-3.284-.861-4.8,3.663-9.617,7.344-13.556,11.96-1.9,2.227-3.261,5.482-2.195,8.396,1.121,3.064,3.901,4.563,7.049,3.906,1.269-.265,2.004-1.759,1.676-2.952-.362-1.317-1.679-1.942-2.952-1.676h0Z"/><path class="g" d="m185.52,253.972c-3.193,2.542-6.429,5.032-9.517,7.702-2.818,2.436-6.257,5.534-5.274,9.67,1.076,4.528,6.214,5.299,9.956,3.806,3.446-1.375,6.242-4.129,9.24-6.244,2.838-2.002,5.754-3.912,8.472-6.079,1.014-.809.844-2.55,0-3.394-1.002-1.002-2.377-.811-3.394,0-.073.058-.335.26.023-.013-.09.068-.179.137-.269.204-.234.175-.469.35-.704.522-.548.401-1.1.796-1.653,1.188-1.161.823-2.329,1.636-3.497,2.449-2.386,1.662-4.644,3.496-7.033,5.152-1.26.873-2.426,1.68-3.75,2.009-.929.231-2.192.349-2.647-.522-.127-.243-.155-.608-.087-.912.108-.485.45-.907.749-1.266,1.062-1.277,2.332-2.382,3.591-3.458,2.995-2.559,6.109-4.968,9.19-7.421,1.015-.808.844-2.551,0-3.394-1.003-1.003-2.377-.81-3.394,0h0Z"/><path class="g" d="m165.707,246.2c-.957-.025-1.198-1.141-1.067-1.867.184-1.017,1.292-1.925,2.265-2.658,2.721-2.05,5.961-3.801,9.17-4.94,3.08-1.093,6.303-1.569,9.558-1.71s6.804-.004,9.869,1.225c2.459.986,4.75,2.502,6.37,4.06,1.831,1.761,3.38,3.564,4.276,5.961,1.11,2.971,1.371,5.92.653,9.016-.584,2.52-1.905,4.509-3.694,6.346-1.216,1.249-2.498,2.437-3.799,3.596-1.168,1.04-2.341,2.162-3.713,2.931-1.116.625-2.554,1.036-3.705.495.082.039.213.043.259.143.04.087-.188-.568-.208-.749.035.311.026-.578.021-.504-.029.373.265-.755.001-.192.55-1.173.328-2.588-.861-3.284-1.041-.609-2.731-.318-3.284.861-1.546,3.294-.339,7.705,3.499,8.552,4.287.946,7.767-1.687,10.804-4.345,2.764-2.419,5.738-4.989,7.597-8.204,1.882-3.255,2.66-7.476,2.211-11.194-.478-3.963-2.015-7.627-4.61-10.648-2.267-2.64-4.943-4.726-8.028-6.342-3.934-2.061-8.427-2.651-12.827-2.553-4.257.094-8.606.683-12.585,2.254-2.421.956-4.748,2.145-6.978,3.487-2.014,1.212-4.094,2.587-5.557,4.456-1.353,1.727-1.926,4.089-1.32,6.235.69,2.441,3.178,4.303,5.683,4.37,3.09.082,3.088-4.718,0-4.8h0Z"/><path class="g" d="m59.32,220.308c.239-.103.195-.085-.133.054.099-.041.198-.081.297-.121.175-.07.35-.138.526-.204.38-.143.763-.277,1.149-.403.721-.235,1.45-.442,2.187-.621.72-.175,1.447-.324,2.178-.443.198-.032.417-.039.61-.092-.648.178-.228.031-.037.009.389-.045.779-.079,1.17-.105,1.25-.084,2.461-1.044,2.4-2.4-.055-1.228-1.058-2.49-2.4-2.4-3.6.241-7.067,1.149-10.37,2.58-.514.223-.962.921-1.103,1.434-.158.574-.087,1.339.242,1.849.33.512.822.964,1.434,1.103.671.153,1.224.029,1.849-.242h0Z"/><path class="g" d="m75.45,169.466c.684,11.036,1.537,22.058,3.165,33,.191,1.283,1.811,1.99,2.952,1.676,1.374-.378,1.868-1.665,1.676-2.952-1.564-10.514-2.336-21.121-2.993-31.724-.19-3.069-4.992-3.09-4.8,0h0Z"/><path class="g" d="m183.379,174.636c-.435,14.552-2.194,28.952-3.718,43.415-.136,1.291,1.2,2.4,2.4,2.4,1.411,0,2.264-1.105,2.4-2.4,1.524-14.463,3.282-28.863,3.718-43.415.092-3.09-4.708-3.087-4.8,0h0Z"/><path class="g" d="m103.39,238.314h68.57c3.089,0,3.094-4.8,0-4.8-18.078,0-36.156,0-54.234,0h-14.336c-3.089,0-3.094,4.8,0,4.8h0Z"/><path class="e" d="m92.221,68.086c-1.225-2.264-3.567-3.085-5.49-3.024-3.212.102-4.585,1.848-5.177,2.875-1.767,3.064-1.715,8.722-.55,12.227.825,2.482,2.177,6.281,5.462,9.013,1.456,1.211,3.655,1.983,5.693,1.461,1.473,5.121,4.152,11.305,8.877,17.054,3.569,4.344,7.319,7.608,11.484,9.698,0,2.082,0,4.163,0,4.163,0,1.087,0,2.271-.401,3.328-.538,1.39-1.263,2.594-2.428,3.534-2.467,1.987-5.002,2.937-8.125,4.111l-3.943,1.552c8.24,5.543,21.762,8.65,33.198,8.911,11.6-.261,25.286-3.453,33.509-9.131-1.251-.494-3.376-1.332-3.376-1.332-3.123-1.175-5.658-2.124-8.125-4.111-1.165-.94-1.889-2.144-2.428-3.534-.401-1.057-.401-2.242-.401-3.328,0,0,0-2.545,0-5.09,3.768-1.968,7-4.661,10.377-8.77,4.646-5.654,7.314-11.728,8.802-16.799,2.079.626,4.364-.137,5.869-1.369,3.306-2.707,4.687-6.494,5.531-8.97,1.192-3.496,1.288-9.154-.456-12.231-.584-1.031-1.944-2.788-5.154-2.915-2.208-.087-4.977.985-5.983,4.085-.674-.274-1.354-.596-2.035-.962-6.162-2.122-11.724-8.356-15.451-15.393-1.677-3.166-3.612-9.772-4.934-14.904-6.684,9.025-15.64,15.712-26.416,19.216-.635.207-1.574.335-2.215.102-.831-.393-1.064-.772-.993-1.866.177-2.722,1.267-7.22,1.578-9.851-7.358,7.227-15.401,14.855-22.863,20.961l-3.437,1.289Z"/><path class="g" d="m179.408,68.273c.161,11.12,1.351,22.269,4.184,33.042,1.275,4.846,2.95,9.586,3.76,14.546.691,4.232.64,8.713-1.702,12.444-2.302,3.668-6.435,6.165-10.752,6.499-1.292.1-2.4,1.032-2.4,2.4,0,1.221,1.101,2.5,2.4,2.4,4.744-.367,9.249-2.387,12.547-5.853,3.454-3.631,5.09-8.345,5.087-13.319-.003-5.333-1.469-10.586-2.964-15.662-1.629-5.528-2.966-11.101-3.842-16.801-1.001-6.514-1.422-13.11-1.517-19.696-.045-3.086-4.845-3.095-4.8,0h0Z"/><path class="g" d="m158.778,12.296c1.525.91,2.803,1.999,4.06,3.249,1.506,1.498,3.078,2.949,4.486,4.541,2.674,3.025,4.765,6.56,6.48,10.203,3.419,7.262,4.895,14.99,5.33,22.95.274,5.005.426,10.024.273,15.036-.095,3.09,4.705,3.087,4.8,0,.145-4.722.015-9.451-.227-14.168-.205-3.991-.493-7.965-1.271-11.893-1.738-8.78-5.384-17.453-11.059-24.421-1.537-1.887-3.318-3.534-5.033-5.255-1.658-1.663-3.393-3.179-5.417-4.386-2.659-1.587-5.076,2.561-2.423,4.145h0Z"/><path class="g" d="m153.654,4.453C145.674,1.239,137.115-.288,128.505.045c-9.007.348-17.869,3.104-25.724,7.475-5.804,3.23-10.852,7.367-14.799,12.724-4.132,5.608-6.918,12.191-8.761,18.88-2.664,9.67-3.424,19.827-3.11,29.823.097,3.081,4.897,3.095,4.8,0-.47-14.977,1.355-31.158,9.661-44.025,3.098-4.799,7.198-8.693,12.089-11.755,6.782-4.247,14.596-7.227,22.579-8.082,9.256-.991,18.538.534,27.137,3.998,1.203.485,2.637-.528,2.952-1.676.376-1.37-.469-2.466-1.676-2.952h0Z"/><path class="g" d="m87.466,134.388c-4.459-.689-8.423-3.111-10.735-7.041-.897-1.526-1.525-3.301-1.593-4.815-.109-2.395.209-4.858.498-7.23.543-4.459,1.719-8.713,2.647-13.088.916-4.315,1.444-8.719,1.831-13.109.592-6.702.788-13.436.793-20.162.002-3.089-4.798-3.094-4.8,0-.009,10.723-.234,21.752-2.505,32.238-.423,1.954-1.003,3.867-1.42,5.823-.612,2.868-1.052,5.775-1.393,8.687-.28,2.392-.645,4.938-.416,7.349.213,2.243.904,4.366,1.991,6.34,2.819,5.118,8.064,8.747,13.825,9.637,1.279.198,2.581-.325,2.952-1.676.313-1.137-.388-2.753-1.676-2.952h0Z"/><path class="g" d="m144.497,39.814c1.768,6.685,3.703,13.285,7.654,19.041,3.764,5.483,8.933,10.753,15.592,12.405,2.998.744,4.277-3.884,1.276-4.629-5.694-1.413-10.073-6.162-13.192-10.895-3.454-5.242-5.11-11.18-6.702-17.198-.789-2.984-5.421-1.718-4.629,1.276h0Z"/><path class="g" d="m144.489,37.031c-4.495,6.025-10.249,11.071-16.869,14.638-1.657.893-3.361,1.706-5.114,2.394-.862.338-1.732.663-2.614.948-.073.024-1.215.237-1.238.264.147-.17.884.767.645.655.057.203.072.122.045-.245.013-.203.031-.406.051-.609.036-.359.086-.714.14-1.07.134-.884.298-1.763.461-2.642.341-1.839.692-3.673.925-5.529.272-2.167-2.745-3.024-4.097-1.697-7.376,7.241-14.867,14.402-22.863,20.961-1.003.823-.853,2.541,0,3.394.992.992,2.389.825,3.394,0,7.997-6.559,15.487-13.72,22.863-20.961l-4.097-1.697c-.378,3.008-1.309,6.363-1.556,9.553-.136,1.754.445,3.294,2.031,4.171,1.812,1.002,3.897.337,5.7-.31,6.71-2.406,12.873-6.06,18.2-10.798,3.036-2.7,5.708-5.745,8.136-8.998.776-1.04.169-2.681-.861-3.284-1.225-.716-2.506-.181-3.284.861h0Z"/><path class="g" d="m89.068,88.204c1.762,7.972,5.43,15.439,10.687,21.686,5.143,6.112,11.81,11.011,19.854,12.251,1.279.197,2.581-.325,2.952-1.676.312-1.137-.388-2.754-1.676-2.952-7.33-1.13-13.051-5.449-17.736-11.017-4.725-5.615-7.874-12.425-9.453-19.568-.666-3.015-5.295-1.739-4.629,1.276h0Z"/><path class="g" d="m167.716,86.928c-1.465,6.628-4.276,12.972-8.455,18.345-2.097,2.696-4.528,5.272-7.344,7.227-2.597,1.803-5.442,3.083-8.438,4.062-2.924.955-1.672,5.592,1.276,4.629,3.369-1.101,6.663-2.518,9.584-4.546,3.181-2.208,5.918-4.946,8.315-7.977,4.732-5.982,8.043-13.016,9.689-20.463.665-3.01-3.961-4.296-4.629-1.276h0Z"/><path class="g" d="m172.181,68.742c1.012-.904,2.428-1.124,3.725-.803.516.128.993.327,1.415.66-.205-.161.284.298.279.293.484.519-.192-.336.167.187,1.428,2.075,1.421,5.027,1.212,7.435-.212,2.448-1.082,4.91-2.231,7.074-1.158,2.182-3.429,5.527-6.334,5.135-1.283-.173-2.576.308-2.952,1.676-.307,1.118.383,2.778,1.676,2.952,7.486,1.01,11.815-6.107,13.804-12.307,1.628-5.074,1.726-13.062-3.092-16.509-3.346-2.395-8.075-1.857-11.064.812-2.309,2.062,1.095,5.447,3.394,3.394h0Z"/><path class="g" d="m92.902,65.036c-2.741-2.486-6.714-3.072-10.065-1.462-2.436,1.17-3.874,3.547-4.513,6.099-1.461,5.835-.039,12.511,3.24,17.51,2.237,3.41,5.807,6.5,10.162,5.948,1.286-.163,2.4-.986,2.4-2.4,0-1.17-1.105-2.564-2.4-2.4-3.217.408-5.358-2.238-6.758-4.811-1.192-2.19-2.099-4.729-2.316-7.221s-.179-5.358,1.209-7.527c.093-.133.069-.107-.073.077.07-.088.144-.172.221-.254.062-.061.544-.511.362-.371.427-.327.903-.522,1.422-.644,1.312-.31,2.705-.065,3.714.85,2.283,2.071,5.688-1.313,3.394-3.394h0Z"/><path class="g" d="m96.444,136.171c7.791,5.164,17.396,7.485,26.558,8.631,9.575,1.197,19.329.108,28.575-2.614,4.849-1.428,9.674-3.352,13.876-6.196,2.544-1.722.145-5.882-2.423-4.145-7.104,4.807-15.973,7.092-24.392,8.157-9.067,1.146-18.154.187-26.926-2.334-4.515-1.297-8.916-3.038-12.845-5.643-2.582-1.711-4.989,2.444-2.423,4.145h0Z"/><path class="g" d="m110.422,117.767c-.005,1.026-.02,2.051-.081,3.075-.039.658-.078,1.319-.15,1.974-.033.296-.042.35-.14.757-.043.184-.094.365-.152.544-.115.294-.131.353-.05.176-.219.547-.522,1.07-.851,1.557-.166.235-.194.273-.083.113-.11.129-.224.254-.343.374-.183.184-.375.358-.577.522.123-.088.067-.046-.169.127-.145.106-.291.209-.439.311-.29.199-.587.389-.889.57-.52.312-1.054.598-1.599.864-2.45,1.196-5.473,2.214-8.247,3.305-1.205.474-2.046,1.607-1.676,2.952.316,1.148,1.739,2.154,2.952,1.676,3.357-1.321,6.902-2.449,10.087-4.142,1.334-.709,2.665-1.576,3.768-2.613,1.177-1.107,1.966-2.521,2.555-4.007.985-2.487.872-5.491.886-8.137.007-1.297-1.108-2.4-2.4-2.4-1.307,0-2.393,1.098-2.4,2.4h0Z"/><path class="g" d="m147.289,117.767c.014,2.646-.099,5.65.886,8.137.589,1.486,1.377,2.9,2.555,4.007,1.103,1.037,2.434,1.904,3.768,2.613,3.185,1.693,6.73,2.821,10.087,4.142,1.206.475,2.635-.521,2.952-1.676.374-1.362-.465-2.476-1.676-2.952-2.766-1.089-5.808-2.115-8.247-3.305-.545-.266-1.08-.552-1.599-.864-.302-.181-.598-.371-.889-.57-.148-.101-.295-.205-.439-.311-.236-.173-.293-.215-.169-.127-.202-.163-.395-.337-.577-.522-.119-.12-.233-.245-.343-.374.11.16.083.123-.083-.113-.328-.485-.635-1.01-.851-1.557.081.177.065.118-.05-.176-.058-.179-.109-.361-.152-.544-.098-.407-.107-.461-.14-.757-.073-.655-.111-1.316-.15-1.974-.061-1.025-.075-2.049-.081-3.075-.007-1.297-1.098-2.4-2.4-2.4s-2.407,1.098-2.4,2.4h0Z"/><path class="g" d="m210.929,248.98c9.26-2.723,14.677-11.244,14.876-20.67.232-11.013-3.112-21.964-5.783-32.529-2.62-10.366-5.34-20.837-9.794-30.592-4.208-9.215-10.829-16.684-19.544-21.885-8.783-5.242-18.321-9.009-27.819-12.711-1.208-.471-2.634.518-2.952,1.676-.373,1.359.464,2.48,1.676,2.952,8.132,3.169,16.153,6.447,23.837,10.621,7.8,4.237,14.542,9.997,18.767,17.922,4.635,8.693,7.293,18.356,9.794,27.835,1.407,5.334,2.726,10.692,4.042,16.049,1.138,4.629,2.158,9.282,2.618,14.034.486,5.027.792,10.244-1.587,14.876-1.966,3.828-5.278,6.58-9.407,7.794-2.957.87-1.699,5.503,1.276,4.629h0Z"/><path class="g" d="m52.106,244.245c-1.707-.302-3.827-1.511-4.987-2.418-1.496-1.171-2.353-2.278-3.148-3.962-1.742-3.692-1.43-8.718-1.024-12.899.988-10.184,3.481-20.189,6.075-30.061,1.255-4.775,2.587-9.528,3.965-14.268,1.286-4.421,2.536-8.822,4.256-13.099,1.809-4.501,3.818-9.032,6.639-13.002,2.709-3.812,6.349-6.593,10.423-8.814,8.26-4.503,17.58-7.151,26.593-10.487,1.215-.45,2.041-1.626,1.676-2.952-.321-1.169-1.731-2.128-2.952-1.676-8.52,3.153-17.343,5.794-25.516,9.813-4.395,2.162-8.615,4.863-11.888,8.551-3.542,3.991-5.948,8.729-8.055,13.589-4.009,9.247-6.561,19.06-9.162,28.778-2.798,10.455-5.383,20.981-6.651,31.748-.663,5.634-1.047,11.66,1.363,16.955.91,1.998,2.308,3.797,4.012,5.179,1.976,1.603,4.572,3.205,7.105,3.652,1.275.225,2.586-.344,2.952-1.676.319-1.159-.393-2.725-1.676-2.952h0Z"/><path class="g" d="m123.263,103.851c2.482,1.322,5.159,1.884,7.971,1.866,2.909-.019,5.801-.62,8.118-2.441.992-.78.877-2.589,0-3.394-1.052-.966-2.336-.832-3.394,0,.743-.584.248-.192.056-.068-.156.101-.317.194-.481.281-.203.107-.791.285-.086.066-.224.069-.44.171-.664.243-.607.197-1.228.323-1.857.427.35-.058.17-.022-.076.003-.182.018-.365.034-.547.045-.439.029-.88.04-1.32.037-.394-.002-.788-.016-1.182-.043-.181-.012-.361-.027-.541-.045-.098-.01-.755-.134-.161-.016-.584-.116-1.163-.216-1.735-.388-.243-.073-.48-.161-.72-.244-.577-.2.442.219-.079-.03-.297-.142-.591-.289-.882-.444-1.108-.59-2.662-.316-3.284.861-.588,1.113-.322,2.653.861,3.284h0Z"/><path class="g" d="m129.841,85.149c.339,1.305.665,2.63.859,3.965l-.086-.638c.023.183.033.363.015.547l.086-.638c-.013.085-.031.165-.06.246l.242-.573c-.025.057-.051.106-.086.158l.375-.486c-.04.049-.079.088-.128.128l.486-.375c-.099.064-.204.116-.311.166l.573-.242c-.171.072-.341.125-.525.154l.638-.086c-.166.02-.327.018-.493,0l.638.086c-.186-.026-.368-.072-.554-.097-.319-.1-.638-.114-.957-.043-.319.014-.617.109-.892.285-.498.291-.973.862-1.103,1.434-.14.614-.11,1.304.242,1.849.312.485.834,1.021,1.434,1.103.457.062.9.178,1.365.198.73.032,1.405-.195,2.055-.497.812-.376,1.451-1.13,1.666-2.005.183-.748.107-1.37-.019-2.119-.214-1.277-.507-2.543-.832-3.796-.151-.579-.589-1.134-1.103-1.434s-1.273-.429-1.849-.242c-1.252.405-2.015,1.65-1.676,2.952h0Z"/><path class="g" d="m109.428,73.822c-.656,2.152-.229,7.102,3.813,7.523,5.341-.032,5.625-6.017,3.827-8.831-1.472-2.304-5.801-3.262-7.64,1.308Z"/><path class="g" d="m152.201,73.823c.657,2.152.229,7.102-3.812,7.523-5.341-.032-5.626-6.017-3.828-8.831,1.472-2.304,5.801-3.262,7.64,1.308Z"/><path class="f" d="m41.661,268.938c1.77,0,2.96,1.81,2.25,3.43-.98,2.22-2.28,5.2-3.63,8.24h-15.95c.01-.04.03-.07.05-.11,1.96-4,3.99-8.05,5.25-10.49.34-.66,1.01-1.07,2.15-1.07h9.88Z"/><path class="e" d="m24.331,280.608h15.95c-.39.88-.78,1.77-1.17,2.65-1.51,3.37-4.86,5.55-8.55,5.55h-1c-4.22,0-7.01-4.38-5.23-8.2Z"/><path class="g" d="m27.557,268.794c-1.413,2.743-2.792,5.503-4.157,8.27-.698,1.413-1.565,2.846-1.852,4.412-.261,1.423-.196,2.924.321,4.285.99,2.607,3.204,4.734,6,5.261,2.555.482,5.281.12,7.643-.928,2.793-1.239,4.755-3.578,5.974-6.32,1.351-3.042,2.697-6.085,4.035-9.133.677-1.542,1.338-3.004.773-4.711-.513-1.551-1.769-2.801-3.359-3.227-1.202-.322-2.605-.17-3.834-.17h-5.889c-2.189,0-4.397.128-5.654,2.26-1.572,2.667,2.575,5.085,4.145,2.423.323-.548-.055.118-.086.079l-.102.06c-.173-.02-.086-.027.262-.021.059.003.12,0,.18,0,.418-.005.837,0,1.255,0h4.394c1.193,0,2.385,0,3.578,0,.133,0,.267-.005.399,0,.278.011-.46-.209.197.03-.439-.159.363.257-.05.008-.194-.117-.086.03.038.084l-.062-.138c.071.284.077.307.019.069.019-.304-.065.178-.109.288-1.009,2.569-2.234,5.076-3.352,7.599-.911,2.056-1.751,4.37-3.357,5.628-1.569,1.23-3.149,1.509-5.027,1.5-1.569-.008-2.583-.525-3.318-1.837-.026-.047-.203-.411-.062-.081-.127-.297-.199-.612-.276-.925-.153-.62-.058.314-.032-.33.004-.096.071-.972.008-.604.216-1.255.963-2.364,1.599-3.649,1.284-2.596,2.58-5.187,3.906-7.762.593-1.152.299-2.605-.861-3.284-1.075-.629-2.688-.296-3.284.861Z"/><path class="g" d="m25.983,283.004c4.599,0,9.198,0,13.797,0,1.255,0,2.458-1.104,2.4-2.4s-1.055-2.4-2.4-2.4h-13.797c-1.255,0-2.458,1.104-2.4,2.4s1.055,2.4,2.4,2.4h0Z"/></g></g></svg>